<svg width="290" height="91" viewBox="0 0 290 91" fill="none" xmlns="http://www.w3.org/2000/svg">
<g filter="url(#filter0_d_632_69)">
<path d="M38.312 16L41.972 7.6H43.784L47.42 16H45.332L43.388 11.452C43.316 11.276 43.244 11.1 43.172 10.924C43.108 10.748 43.044 10.568 42.98 10.384C42.916 10.2 42.856 10.02 42.8 9.844C42.744 9.668 42.692 9.5 42.644 9.34L43.052 9.328C43.004 9.52 42.948 9.704 42.884 9.88C42.828 10.056 42.768 10.232 42.704 10.408C42.64 10.576 42.572 10.748 42.5 10.924C42.428 11.1 42.356 11.28 42.284 11.464L40.34 16H38.312ZM40.028 14.44L40.688 12.904H45.008L45.5 14.44H40.028ZM49.6282 16.132C49.0042 16.132 48.4562 15.992 47.9842 15.712C47.5122 15.424 47.1442 15.032 46.8802 14.536C46.6162 14.032 46.4842 13.46 46.4842 12.82C46.4842 12.18 46.6202 11.612 46.8922 11.116C47.1642 10.612 47.5402 10.216 48.0202 9.928C48.5082 9.64 49.0682 9.496 49.7002 9.496C50.0522 9.496 50.3802 9.544 50.6842 9.64C50.9882 9.728 51.2602 9.848 51.5002 10C51.7482 10.152 51.9442 10.328 52.0882 10.528C52.2402 10.72 52.3282 10.916 52.3522 11.116L51.8962 11.224V7.12H53.8282V16H52.0402L51.9322 14.452L52.3162 14.548C52.2922 14.748 52.2042 14.944 52.0522 15.136C51.9002 15.32 51.7002 15.488 51.4522 15.64C51.2122 15.784 50.9362 15.904 50.6242 16C50.3122 16.088 49.9802 16.132 49.6282 16.132ZM50.1682 14.512C50.5282 14.512 50.8402 14.44 51.1042 14.296C51.3762 14.152 51.5842 13.956 51.7282 13.708C51.8722 13.452 51.9442 13.156 51.9442 12.82C51.9442 12.476 51.8722 12.18 51.7282 11.932C51.5842 11.676 51.3762 11.48 51.1042 11.344C50.8402 11.2 50.5282 11.128 50.1682 11.128C49.8082 11.128 49.4962 11.2 49.2322 11.344C48.9682 11.48 48.7602 11.676 48.6082 11.932C48.4642 12.18 48.3922 12.476 48.3922 12.82C48.3922 13.156 48.4642 13.452 48.6082 13.708C48.7602 13.956 48.9682 14.152 49.2322 14.296C49.4962 14.44 49.8082 14.512 50.1682 14.512ZM57.2858 16.108C56.6538 16.108 56.1018 15.968 55.6298 15.688C55.1578 15.408 54.7858 15.02 54.5138 14.524C54.2498 14.02 54.1178 13.448 54.1178 12.808C54.1178 12.16 54.2538 11.588 54.5258 11.092C54.7978 10.596 55.1738 10.208 55.6538 9.928C56.1418 9.64 56.7018 9.496 57.3338 9.496C57.6938 9.496 58.0258 9.544 58.3298 9.64C58.6338 9.728 58.8978 9.852 59.1218 10.012C59.3538 10.172 59.5418 10.348 59.6858 10.54C59.8378 10.732 59.9378 10.932 59.9858 11.14H59.5658V9.628H61.4618V16H59.5298V14.368L59.9378 14.428C59.8898 14.636 59.7898 14.84 59.6378 15.04C59.4858 15.24 59.2898 15.42 59.0498 15.58C58.8098 15.74 58.5378 15.868 58.2338 15.964C57.9378 16.06 57.6218 16.108 57.2858 16.108ZM57.8018 14.488C58.1618 14.488 58.4738 14.42 58.7378 14.284C59.0098 14.148 59.2178 13.956 59.3618 13.708C59.5138 13.452 59.5898 13.152 59.5898 12.808C59.5898 12.472 59.5138 12.18 59.3618 11.932C59.2178 11.676 59.0098 11.476 58.7378 11.332C58.4738 11.188 58.1618 11.116 57.8018 11.116C57.4418 11.116 57.1298 11.188 56.8658 11.332C56.6018 11.476 56.3938 11.676 56.2418 11.932C56.0978 12.18 56.0258 12.472 56.0258 12.808C56.0258 13.152 56.0978 13.452 56.2418 13.708C56.3938 13.956 56.6018 14.148 56.8658 14.284C57.1298 14.42 57.4418 14.488 57.8018 14.488ZM39.464 31V24.628H41.288L41.348 25.972L41 25.888C41.104 25.696 41.24 25.516 41.408 25.348C41.584 25.18 41.78 25.036 41.996 24.916C42.22 24.788 42.46 24.688 42.716 24.616C42.972 24.544 43.248 24.508 43.544 24.508C43.888 24.508 44.204 24.56 44.492 24.664C44.788 24.768 45.04 24.94 45.248 25.18C45.456 25.412 45.616 25.724 45.728 26.116L45.332 26.068L45.428 25.876C45.556 25.692 45.708 25.52 45.884 25.36C46.068 25.192 46.276 25.048 46.508 24.928C46.74 24.8 46.988 24.7 47.252 24.628C47.516 24.548 47.788 24.508 48.068 24.508C48.652 24.508 49.128 24.62 49.496 24.844C49.864 25.06 50.136 25.368 50.312 25.768C50.488 26.168 50.576 26.632 50.576 27.16V31H48.644V27.364C48.644 27.108 48.604 26.888 48.524 26.704C48.444 26.52 48.32 26.38 48.152 26.284C47.992 26.18 47.784 26.128 47.528 26.128C47.304 26.128 47.096 26.164 46.904 26.236C46.72 26.308 46.556 26.408 46.412 26.536C46.276 26.656 46.168 26.8 46.088 26.968C46.016 27.128 45.98 27.304 45.98 27.496V31H44.048V27.352C44.048 27.104 44.004 26.888 43.916 26.704C43.828 26.52 43.692 26.38 43.508 26.284C43.324 26.18 43.096 26.128 42.824 26.128C42.608 26.128 42.412 26.168 42.236 26.248C42.068 26.32 41.92 26.42 41.792 26.548C41.664 26.668 41.564 26.8 41.492 26.944C41.428 27.088 41.396 27.236 41.396 27.388V31H39.464ZM54.1287 31.108C53.4967 31.108 52.9447 30.968 52.4727 30.688C52.0007 30.408 51.6287 30.02 51.3567 29.524C51.0927 29.02 50.9607 28.448 50.9607 27.808C50.9607 27.16 51.0967 26.588 51.3687 26.092C51.6407 25.596 52.0167 25.208 52.4967 24.928C52.9848 24.64 53.5448 24.496 54.1768 24.496C54.5367 24.496 54.8687 24.544 55.1728 24.64C55.4768 24.728 55.7407 24.852 55.9647 25.012C56.1968 25.172 56.3848 25.348 56.5288 25.54C56.6808 25.732 56.7808 25.932 56.8287 26.14H56.4088V24.628H58.3048V31H56.3728V29.368L56.7807 29.428C56.7327 29.636 56.6328 29.84 56.4808 30.04C56.3288 30.24 56.1328 30.42 55.8928 30.58C55.6528 30.74 55.3808 30.868 55.0767 30.964C54.7807 31.06 54.4647 31.108 54.1287 31.108ZM54.6448 29.488C55.0048 29.488 55.3168 29.42 55.5808 29.284C55.8528 29.148 56.0608 28.956 56.2048 28.708C56.3568 28.452 56.4327 28.152 56.4327 27.808C56.4327 27.472 56.3568 27.18 56.2048 26.932C56.0608 26.676 55.8528 26.476 55.5808 26.332C55.3168 26.188 55.0048 26.116 54.6448 26.116C54.2847 26.116 53.9727 26.188 53.7088 26.332C53.4448 26.476 53.2368 26.676 53.0847 26.932C52.9407 27.18 52.8687 27.472 52.8687 27.808C52.8687 28.152 52.9407 28.452 53.0847 28.708C53.2368 28.956 53.4448 29.148 53.7088 29.284C53.9727 29.42 54.2847 29.488 54.6448 29.488ZM61.8907 31.12C61.1867 31.12 60.5547 31.02 59.9947 30.82C59.4427 30.62 58.9987 30.336 58.6627 29.968L59.8267 28.936C60.0987 29.192 60.4227 29.388 60.7987 29.524C61.1747 29.66 61.5707 29.728 61.9867 29.728C62.1147 29.728 62.2387 29.716 62.3587 29.692C62.4867 29.668 62.5947 29.636 62.6827 29.596C62.7787 29.548 62.8547 29.492 62.9107 29.428C62.9667 29.364 62.9947 29.284 62.9947 29.188C62.9947 29.036 62.8987 28.916 62.7067 28.828C62.5707 28.78 62.3987 28.732 62.1907 28.684C61.9827 28.636 61.7467 28.584 61.4827 28.528C61.0427 28.448 60.6547 28.352 60.3187 28.24C59.9907 28.12 59.7147 27.972 59.4907 27.796C59.2987 27.628 59.1507 27.436 59.0467 27.22C58.9427 27.004 58.8907 26.752 58.8907 26.464C58.8907 26.168 58.9667 25.9 59.1187 25.66C59.2707 25.412 59.4827 25.204 59.7547 25.036C60.0267 24.86 60.3387 24.728 60.6907 24.64C61.0427 24.544 61.4107 24.496 61.7947 24.496C62.1787 24.496 62.5547 24.536 62.9227 24.616C63.2907 24.688 63.6387 24.796 63.9667 24.94C64.2947 25.076 64.5827 25.252 64.8307 25.468L63.8467 26.62C63.6707 26.484 63.4667 26.36 63.2347 26.248C63.0027 26.136 62.7547 26.048 62.4907 25.984C62.2347 25.912 61.9827 25.876 61.7347 25.876C61.5987 25.876 61.4667 25.884 61.3387 25.9C61.2187 25.916 61.1147 25.948 61.0267 25.996C60.9387 26.036 60.8667 26.088 60.8107 26.152C60.7627 26.208 60.7387 26.28 60.7387 26.368C60.7387 26.44 60.7587 26.508 60.7987 26.572C60.8387 26.636 60.8987 26.688 60.9787 26.728C61.0907 26.8 61.2547 26.864 61.4707 26.92C61.6947 26.976 61.9747 27.036 62.3107 27.1C62.7987 27.204 63.2147 27.324 63.5587 27.46C63.9027 27.588 64.1787 27.744 64.3867 27.928C64.5547 28.056 64.6787 28.216 64.7587 28.408C64.8387 28.592 64.8787 28.796 64.8787 29.02C64.8787 29.428 64.7467 29.792 64.4827 30.112C64.2267 30.424 63.8747 30.672 63.4267 30.856C62.9867 31.032 62.4747 31.12 61.8907 31.12ZM67.7202 31.108C67.0882 31.108 66.5362 30.968 66.0642 30.688C65.5922 30.408 65.2202 30.02 64.9482 29.524C64.6842 29.02 64.5522 28.448 64.5522 27.808C64.5522 27.16 64.6882 26.588 64.9602 26.092C65.2322 25.596 65.6082 25.208 66.0882 24.928C66.5762 24.64 67.1362 24.496 67.7682 24.496C68.1282 24.496 68.4602 24.544 68.7642 24.64C69.0682 24.728 69.3322 24.852 69.5562 25.012C69.7882 25.172 69.9762 25.348 70.1202 25.54C70.2722 25.732 70.3722 25.932 70.4202 26.14H70.0002V24.628H71.8962V31H69.9642V29.368L70.3722 29.428C70.3242 29.636 70.2242 29.84 70.0722 30.04C69.9202 30.24 69.7242 30.42 69.4842 30.58C69.2442 30.74 68.9722 30.868 68.6682 30.964C68.3722 31.06 68.0562 31.108 67.7202 31.108ZM68.2362 29.488C68.5962 29.488 68.9082 29.42 69.1722 29.284C69.4442 29.148 69.6522 28.956 69.7962 28.708C69.9482 28.452 70.0242 28.152 70.0242 27.808C70.0242 27.472 69.9482 27.18 69.7962 26.932C69.6522 26.676 69.4442 26.476 69.1722 26.332C68.9082 26.188 68.5962 26.116 68.2362 26.116C67.8762 26.116 67.5642 26.188 67.3002 26.332C67.0362 26.476 66.8282 26.676 66.6762 26.932C66.5322 27.18 66.4602 27.472 66.4602 27.808C66.4602 28.152 66.5322 28.452 66.6762 28.708C66.8282 28.956 67.0362 29.148 67.3002 29.284C67.5642 29.42 67.8762 29.488 68.2362 29.488ZM73.0581 31V22.12H74.9781V31H73.0581ZM78.5459 31.108C77.9139 31.108 77.3619 30.968 76.8899 30.688C76.4179 30.408 76.0459 30.02 75.7739 29.524C75.5099 29.02 75.3779 28.448 75.3779 27.808C75.3779 27.16 75.5139 26.588 75.7859 26.092C76.0579 25.596 76.4339 25.208 76.9139 24.928C77.4019 24.64 77.9619 24.496 78.5939 24.496C78.9539 24.496 79.2859 24.544 79.5899 24.64C79.8939 24.728 80.1579 24.852 80.3819 25.012C80.6139 25.172 80.8019 25.348 80.9459 25.54C81.0979 25.732 81.1979 25.932 81.2459 26.14H80.8259V24.628H82.7219V31H80.7899V29.368L81.1979 29.428C81.1499 29.636 81.0499 29.84 80.8979 30.04C80.7459 30.24 80.5499 30.42 80.3099 30.58C80.0699 30.74 79.7979 30.868 79.4939 30.964C79.1979 31.06 78.8819 31.108 78.5459 31.108ZM79.0619 29.488C79.4219 29.488 79.7339 29.42 79.9979 29.284C80.2699 29.148 80.4779 28.956 80.6219 28.708C80.7739 28.452 80.8499 28.152 80.8499 27.808C80.8499 27.472 80.7739 27.18 80.6219 26.932C80.4779 26.676 80.2699 26.476 79.9979 26.332C79.7339 26.188 79.4219 26.116 79.0619 26.116C78.7019 26.116 78.3899 26.188 78.1259 26.332C77.8619 26.476 77.6539 26.676 77.5019 26.932C77.3579 27.18 77.2859 27.472 77.2859 27.808C77.2859 28.152 77.3579 28.452 77.5019 28.708C77.6539 28.956 77.8619 29.148 78.1259 29.284C78.3899 29.42 78.7019 29.488 79.0619 29.488ZM83.8839 31V22.12H85.7679V26.116L85.3119 26.272C85.3919 25.952 85.5599 25.66 85.8159 25.396C86.0799 25.124 86.3999 24.908 86.7759 24.748C87.1519 24.58 87.5519 24.496 87.9759 24.496C88.5199 24.496 88.9759 24.608 89.3439 24.832C89.7199 25.048 89.9999 25.356 90.1839 25.756C90.3759 26.148 90.4719 26.608 90.4719 27.136V31H88.5399V27.436C88.5399 27.148 88.4879 26.908 88.3839 26.716C88.2879 26.516 88.1399 26.364 87.9399 26.26C87.7479 26.156 87.5239 26.108 87.2679 26.116C87.0599 26.116 86.8639 26.152 86.6799 26.224C86.5039 26.288 86.3479 26.384 86.2119 26.512C86.0839 26.632 85.9839 26.772 85.9119 26.932C85.8399 27.092 85.8039 27.264 85.8039 27.448V31H84.8559C84.5919 31 84.3799 31 84.2199 31C84.0599 31 83.9479 31 83.8839 31ZM97.0873 31.108C96.4553 31.108 95.9033 30.968 95.4313 30.688C94.9593 30.408 94.5873 30.02 94.3153 29.524C94.0513 29.02 93.9193 28.448 93.9193 27.808C93.9193 27.16 94.0553 26.588 94.3273 26.092C94.5993 25.596 94.9753 25.208 95.4553 24.928C95.9433 24.64 96.5033 24.496 97.1353 24.496C97.4953 24.496 97.8273 24.544 98.1313 24.64C98.4353 24.728 98.6993 24.852 98.9233 25.012C99.1553 25.172 99.3433 25.348 99.4873 25.54C99.6393 25.732 99.7393 25.932 99.7873 26.14H99.3673V24.628H101.263V31H99.3313V29.368L99.7393 29.428C99.6913 29.636 99.5913 29.84 99.4393 30.04C99.2873 30.24 99.0913 30.42 98.8513 30.58C98.6113 30.74 98.3393 30.868 98.0353 30.964C97.7393 31.06 97.4233 31.108 97.0873 31.108ZM97.6033 29.488C97.9633 29.488 98.2753 29.42 98.5393 29.284C98.8113 29.148 99.0193 28.956 99.1633 28.708C99.3153 28.452 99.3913 28.152 99.3913 27.808C99.3913 27.472 99.3153 27.18 99.1633 26.932C99.0193 26.676 98.8113 26.476 98.5393 26.332C98.2753 26.188 97.9633 26.116 97.6033 26.116C97.2433 26.116 96.9313 26.188 96.6673 26.332C96.4033 26.476 96.1953 26.676 96.0433 26.932C95.8993 27.18 95.8273 27.472 95.8273 27.808C95.8273 28.152 95.8993 28.452 96.0433 28.708C96.1953 28.956 96.4033 29.148 96.6673 29.284C96.9313 29.42 97.2433 29.488 97.6033 29.488ZM102.425 33.64V24.628H104.249L104.321 26.056L103.961 25.948C104.017 25.692 104.169 25.456 104.417 25.24C104.665 25.024 104.977 24.848 105.353 24.712C105.737 24.576 106.145 24.508 106.577 24.508C107.201 24.508 107.749 24.652 108.221 24.94C108.693 25.22 109.061 25.608 109.325 26.104C109.597 26.592 109.733 27.16 109.733 27.808C109.733 28.448 109.597 29.016 109.325 29.512C109.061 30.008 108.689 30.4 108.209 30.688C107.729 30.968 107.177 31.108 106.553 31.108C106.121 31.108 105.717 31.036 105.341 30.892C104.965 30.748 104.649 30.56 104.393 30.328C104.145 30.096 103.985 29.852 103.913 29.596L104.357 29.428V33.64H102.425ZM106.085 29.488C106.445 29.488 106.757 29.42 107.021 29.284C107.285 29.14 107.489 28.944 107.633 28.696C107.785 28.448 107.861 28.152 107.861 27.808C107.861 27.472 107.785 27.18 107.633 26.932C107.489 26.676 107.285 26.48 107.021 26.344C106.765 26.2 106.453 26.128 106.085 26.128C105.725 26.128 105.409 26.196 105.137 26.332C104.873 26.468 104.665 26.664 104.513 26.92C104.369 27.176 104.297 27.472 104.297 27.808C104.297 28.152 104.369 28.448 104.513 28.696C104.665 28.944 104.873 29.14 105.137 29.284C105.409 29.42 105.725 29.488 106.085 29.488ZM112.765 31.108C112.133 31.108 111.581 30.968 111.109 30.688C110.637 30.408 110.265 30.02 109.993 29.524C109.729 29.02 109.597 28.448 109.597 27.808C109.597 27.16 109.733 26.588 110.005 26.092C110.277 25.596 110.653 25.208 111.133 24.928C111.621 24.64 112.181 24.496 112.813 24.496C113.173 24.496 113.505 24.544 113.809 24.64C114.113 24.728 114.377 24.852 114.601 25.012C114.833 25.172 115.021 25.348 115.165 25.54C115.317 25.732 115.417 25.932 115.465 26.14H115.045V24.628H116.941V31H115.009V29.368L115.417 29.428C115.369 29.636 115.269 29.84 115.117 30.04C114.965 30.24 114.769 30.42 114.529 30.58C114.289 30.74 114.017 30.868 113.713 30.964C113.417 31.06 113.101 31.108 112.765 31.108ZM113.281 29.488C113.641 29.488 113.953 29.42 114.217 29.284C114.489 29.148 114.697 28.956 114.841 28.708C114.993 28.452 115.069 28.152 115.069 27.808C115.069 27.472 114.993 27.18 114.841 26.932C114.697 26.676 114.489 26.476 114.217 26.332C113.953 26.188 113.641 26.116 113.281 26.116C112.921 26.116 112.609 26.188 112.345 26.332C112.081 26.476 111.873 26.676 111.721 26.932C111.577 27.18 111.505 27.472 111.505 27.808C111.505 28.152 111.577 28.452 111.721 28.708C111.873 28.956 112.081 29.148 112.345 29.284C112.609 29.42 112.921 29.488 113.281 29.488ZM119.735 28.12L119.351 26.476C119.559 26.436 119.771 26.384 119.987 26.32C120.203 26.256 120.415 26.184 120.623 26.104C120.831 26.024 121.011 25.928 121.163 25.816C121.323 25.704 121.447 25.58 121.535 25.444C121.631 25.3 121.679 25.148 121.679 24.988C121.679 24.82 121.627 24.684 121.523 24.58C121.427 24.468 121.299 24.388 121.139 24.34C120.987 24.284 120.815 24.256 120.623 24.256C120.239 24.256 119.879 24.352 119.543 24.544C119.215 24.736 118.919 25.036 118.655 25.444L117.347 24.16C117.747 23.616 118.227 23.192 118.787 22.888C119.355 22.576 119.975 22.42 120.647 22.42C121.223 22.42 121.739 22.528 122.195 22.744C122.659 22.952 123.023 23.244 123.287 23.62C123.551 23.988 123.683 24.404 123.683 24.868C123.683 25.172 123.611 25.472 123.467 25.768C123.323 26.056 123.123 26.324 122.867 26.572C122.619 26.82 122.331 27.04 122.003 27.232C121.675 27.416 121.323 27.56 120.947 27.664L120.815 28.12H119.735ZM119.219 30.064C119.219 29.76 119.323 29.504 119.531 29.296C119.747 29.088 120.043 28.984 120.419 28.984C120.811 28.984 121.111 29.08 121.319 29.272C121.527 29.464 121.631 29.728 121.631 30.064C121.631 30.36 121.523 30.612 121.307 30.82C121.099 31.028 120.803 31.132 120.419 31.132C120.027 31.132 119.727 31.04 119.519 30.856C119.319 30.664 119.219 30.4 119.219 30.064Z" fill="#131927"/>
</g>
<g filter="url(#filter1_d_632_69)">
<path d="M48.8193 72.36C47.1633 72.36 45.6393 72.18 44.2473 71.82C42.8793 71.436 41.6433 70.884 40.5393 70.164C39.4593 69.444 38.4633 68.568 37.5513 67.536L40.4313 63.936C41.8233 65.544 43.2033 66.672 44.5713 67.32C45.9393 67.968 47.4393 68.292 49.0713 68.292C50.0073 68.292 50.8833 68.172 51.6993 67.932C52.5153 67.692 53.1753 67.332 53.6793 66.852C54.1833 66.348 54.4353 65.748 54.4353 65.052C54.4353 64.596 54.3153 64.2 54.0753 63.864C53.8353 63.504 53.4993 63.204 53.0673 62.964C52.6593 62.7 52.1673 62.472 51.5913 62.28C51.0393 62.088 50.4513 61.932 49.8273 61.812C49.2033 61.668 48.5553 61.548 47.8833 61.452C46.4433 61.212 45.1593 60.888 44.0312 60.48C42.9033 60.072 41.9553 59.556 41.1873 58.932C40.4193 58.284 39.8313 57.54 39.4233 56.7C39.0393 55.86 38.8473 54.888 38.8473 53.784C38.8473 52.68 39.0993 51.672 39.6033 50.76C40.1313 49.848 40.8513 49.068 41.7633 48.42C42.6993 47.772 43.7673 47.268 44.9673 46.908C46.1913 46.548 47.4993 46.368 48.8913 46.368C50.4513 46.368 51.8433 46.536 53.0673 46.872C54.3153 47.208 55.4073 47.7 56.3433 48.348C57.2793 48.996 58.0713 49.764 58.7193 50.652L55.7673 53.82C55.1913 53.076 54.5433 52.464 53.8233 51.984C53.1033 51.48 52.3113 51.108 51.4473 50.868C50.6073 50.604 49.7313 50.472 48.8193 50.472C47.8113 50.472 46.9233 50.592 46.1553 50.832C45.4113 51.072 44.8113 51.42 44.3553 51.876C43.9233 52.332 43.7073 52.884 43.7073 53.532C43.7073 54.036 43.8393 54.48 44.1033 54.864C44.3913 55.248 44.7873 55.584 45.2913 55.872C45.8193 56.16 46.4433 56.4 47.1633 56.592C47.9073 56.784 48.7233 56.952 49.6113 57.096C50.9793 57.336 52.2513 57.636 53.4273 57.996C54.6033 58.356 55.6233 58.812 56.4873 59.364C57.3753 59.916 58.0593 60.6 58.5393 61.416C59.0193 62.208 59.2593 63.168 59.2593 64.296C59.2593 65.952 58.8153 67.392 57.9273 68.616C57.0633 69.816 55.8513 70.74 54.2913 71.388C52.7313 72.036 50.9073 72.36 48.8193 72.36ZM67.1056 72V53.028H71.5336V72H67.1056ZM69.2656 48.852C68.3776 48.852 67.6816 48.636 67.1776 48.204C66.6976 47.748 66.4576 47.112 66.4576 46.296C66.4576 45.528 66.7096 44.904 67.2136 44.424C67.7176 43.944 68.4016 43.704 69.2656 43.704C70.1536 43.704 70.8496 43.932 71.3536 44.388C71.8576 44.82 72.1096 45.456 72.1096 46.296C72.1096 47.04 71.8456 47.652 71.3176 48.132C70.8136 48.612 70.1296 48.852 69.2656 48.852ZM81.0893 72V53.028H85.4093L85.5173 57.492L84.4013 57.816C84.7373 56.928 85.2893 56.1 86.0573 55.332C86.8253 54.54 87.7493 53.892 88.8293 53.388C89.9093 52.884 91.0613 52.632 92.2853 52.632C93.9173 52.632 95.2973 52.956 96.4253 53.604C97.5533 54.228 98.3933 55.14 98.9453 56.34C99.4973 57.516 99.7733 58.92 99.7733 60.552V72H95.3453V61.092C95.3453 60.108 95.1653 59.28 94.8053 58.608C94.4453 57.936 93.9173 57.42 93.2213 57.06C92.5493 56.7 91.7573 56.532 90.8453 56.556C90.0773 56.556 89.3693 56.688 88.7213 56.952C88.0733 57.216 87.5093 57.576 87.0293 58.032C86.5493 58.464 86.1773 58.956 85.9133 59.508C85.6733 60.036 85.5533 60.588 85.5533 61.164V72H83.3213C82.7693 72 82.3013 72 81.9173 72C81.5573 72 81.2813 72 81.0893 72ZM109.328 72V53.028H113.756V72H109.328ZM111.488 48.852C110.6 48.852 109.904 48.636 109.4 48.204C108.92 47.748 108.68 47.112 108.68 46.296C108.68 45.528 108.932 44.904 109.436 44.424C109.94 43.944 110.624 43.704 111.488 43.704C112.376 43.704 113.072 43.932 113.576 44.388C114.08 44.82 114.332 45.456 114.332 46.296C114.332 47.04 114.068 47.652 113.54 48.132C113.036 48.612 112.352 48.852 111.488 48.852ZM177.453 72V53.028H181.809L181.917 59.436L181.017 58.572C181.329 57.468 181.857 56.472 182.601 55.584C183.369 54.672 184.245 53.952 185.229 53.424C186.213 52.896 187.233 52.632 188.289 52.632C188.889 52.632 189.477 52.692 190.053 52.812C190.629 52.932 191.085 53.088 191.421 53.28L190.233 58.068C189.849 57.828 189.381 57.648 188.829 57.528C188.301 57.384 187.761 57.312 187.209 57.312C186.441 57.312 185.733 57.456 185.085 57.744C184.437 58.008 183.873 58.38 183.393 58.86C182.937 59.316 182.577 59.844 182.313 60.444C182.049 61.02 181.917 61.644 181.917 62.316V72H177.453ZM198.379 72V53.028H202.807V72H198.379ZM200.539 48.852C199.651 48.852 198.955 48.636 198.451 48.204C197.971 47.748 197.731 47.112 197.731 46.296C197.731 45.528 197.983 44.904 198.487 44.424C198.991 43.944 199.675 43.704 200.539 43.704C201.427 43.704 202.123 43.932 202.627 44.388C203.131 44.82 203.383 45.456 203.383 46.296C203.383 47.04 203.119 47.652 202.591 48.132C202.087 48.612 201.403 48.852 200.539 48.852ZM214.631 72V47.772H219.059V72H214.631ZM210.023 57.132V53.028H224.351V57.132H210.023ZM238.833 72.36C236.985 72.36 235.341 71.94 233.901 71.1C232.485 70.236 231.357 69.06 230.517 67.572C229.701 66.084 229.293 64.38 229.293 62.46C229.293 60.564 229.713 58.872 230.553 57.384C231.393 55.896 232.545 54.732 234.009 53.892C235.497 53.052 237.189 52.632 239.085 52.632C240.213 52.632 241.245 52.776 242.181 53.064C243.141 53.352 243.969 53.76 244.665 54.288C245.385 54.792 245.961 55.356 246.393 55.98C246.825 56.58 247.089 57.216 247.185 57.888L246.141 57.78V53.028H250.569V72H246.105V67.176L247.077 67.212C246.957 67.812 246.657 68.424 246.177 69.048C245.721 69.648 245.109 70.2 244.341 70.704C243.597 71.184 242.757 71.58 241.821 71.892C240.885 72.204 239.889 72.36 238.833 72.36ZM240.021 68.436C241.245 68.436 242.325 68.184 243.261 67.68C244.221 67.176 244.965 66.48 245.493 65.592C246.021 64.68 246.285 63.636 246.285 62.46C246.285 61.332 246.021 60.324 245.493 59.436C244.965 58.548 244.221 57.852 243.261 57.348C242.325 56.82 241.245 56.556 240.021 56.556C238.773 56.556 237.681 56.82 236.745 57.348C235.809 57.852 235.077 58.548 234.549 59.436C234.045 60.324 233.793 61.332 233.793 62.46C233.793 63.636 234.045 64.68 234.549 65.592C235.077 66.48 235.809 67.176 236.745 67.68C237.681 68.184 238.773 68.436 240.021 68.436Z" fill="#131927"/>
</g>
<g filter="url(#filter2_d_632_69)">
<path d="M196.03 20.4655C196.03 20.4655 184.017 35.4648 183.244 35.95C182.471 36.4352 181.81 36.5129 180.842 36.6065C179.529 36.7334 178.753 36.5464 177.499 36.1497C176.613 35.8693 176.133 35.6389 175.337 35.165C174.372 34.5903 173.894 34.1587 173.09 33.381C172.271 32.588 171.833 32.1038 171.209 31.1546C170.743 30.4457 170.504 30.0258 170.184 29.2422C169.765 28.2133 169.483 26.4878 169.483 26.4878L166.632 26.7875C165.817 26.8731 164.188 27.0443 163.008 27.5724C161.828 28.1004 161.163 28.4044 160.648 28.6285C160.133 28.8525 159.103 29.5989 158.33 30.0841C157.558 30.5694 156.054 31.9394 156.054 31.9394L153.132 35.4787C152.421 36.3394 151.79 37.5461 151.79 37.5461L151.024 38.9324C151.024 38.9324 150.357 40.3652 150.034 41.3206C149.905 41.7002 149.852 41.9317 149.731 42.3005C149.488 43.0334 149.411 43.888 149.329 44.7892C149.305 45.0505 149.252 45.583 149.252 45.583C149.252 45.583 149.116 48.2087 149.265 49.6218C149.322 50.1635 149.35 50.494 149.375 50.7749L149.375 50.7751C149.414 51.2269 149.443 51.5506 149.559 52.4191C149.597 52.7049 149.611 52.8562 149.631 53.0741L149.631 53.0752C149.644 53.2127 149.659 53.3768 149.685 53.6179C150.931 53.563 151.328 53.6932 152.426 54.0538L152.62 54.1174C153.367 54.3618 153.801 54.5935 154.207 54.8105L154.208 54.8106C154.396 54.911 154.578 55.0083 154.782 55.1022C155.945 55.6358 156.835 56.354 157.571 56.9474C157.679 57.0346 157.784 57.1192 157.886 57.2001C158.68 57.831 159.103 58.2312 159.725 59.0269C160.16 59.5826 160.708 60.5397 160.708 60.5397L161.325 62.4949L161.493 64.0933C161.575 64.8736 150.462 80.6054 149.689 81.0907C149.082 81.4722 148.846 81.5165 148.46 81.5889C148.356 81.6086 148.24 81.6303 148.102 81.6615C147.478 81.803 147.112 81.8438 146.473 81.8327C145.509 81.8161 144.954 81.6296 144.076 81.3345L144.076 81.3345L143.945 81.2904C143.146 81.0226 142.694 80.7846 142.004 80.4222L142.004 80.4221L141.782 80.3056C141.078 79.9369 140.684 79.7233 140.027 79.2781C139.284 78.7743 138.887 78.4587 138.23 77.8509C137.649 77.3137 137.325 77.0031 136.84 76.3809C136.406 75.8244 136.205 75.4801 135.857 74.8681C135.803 74.7728 135.751 74.682 135.701 74.5947C135.297 73.8894 135.022 73.409 134.791 72.5561C134.545 71.6469 134.435 71.095 134.539 70.1585C134.593 69.6649 134.82 68.9169 134.82 68.9169C134.82 68.9169 134.15 68.9244 133.556 68.6457C132.836 68.3077 132.255 67.8319 131.759 67.2185C131.093 66.3955 130.733 65.9042 130.285 64.9493C130.009 64.3624 129.71 63.3937 129.71 63.3937C129.71 63.3937 129.008 60.6393 128.84 59.0409C128.788 58.5463 128.719 58.0542 128.644 57.5267C128.478 56.3494 128.287 54.996 128.21 53.0468C128.156 51.6792 128.25 50.2454 128.377 48.2952L128.377 48.295C128.396 47.9981 128.416 47.6892 128.437 47.3667C128.592 44.9264 128.831 43.2853 129.071 41.6441L129.071 41.6439C129.31 40.0028 129.31 40.0026 129.591 38.7612L129.591 38.7611C129.685 38.3482 129.774 37.9423 129.864 37.5365L129.865 37.5335C130.044 36.7199 130.224 35.9064 130.435 35.0361C130.671 34.0698 131.043 32.4549 131.645 30.8688C132.095 29.6815 132.363 29.1693 132.98 27.9003C133.669 26.4816 134.722 24.889 134.722 24.889C134.722 24.889 136.174 22.3305 137.196 20.9929C138.555 19.2135 140.118 17.4536 140.118 17.4536C140.118 17.4536 143.083 14.3139 144.586 12.9438C146.089 11.5738 147.227 10.6461 148.773 9.67568C150.318 8.70523 152.27 7.69196 152.27 7.69196C152.27 7.69196 154.223 6.67871 155.403 6.15066C156.583 5.62262 158.17 5.05178 158.17 5.05178C158.17 5.05178 159.35 4.52374 161.345 3.91008C163.339 3.29641 166.19 2.99675 166.19 2.99675C166.19 2.99675 169.856 2.61145 171.935 2.797C174.013 2.98255 175.727 3.61052 175.727 3.61052C175.727 3.61052 176.583 3.9245 177.889 4.59528C179.195 5.26605 179.645 5.62285 180.543 6.33644C181.442 7.05002 181.526 7.84923 181.526 7.84923C181.526 7.84923 182.706 7.3212 183.52 7.23558C184.335 7.14995 185.15 7.06433 186.414 7.3355C187.154 7.49424 187.46 7.56006 187.759 7.65033C187.971 7.71427 188.179 7.79047 188.534 7.92066C189.391 8.23464 190.248 8.54863 191.146 9.26221C192.045 9.9758 192.494 10.3326 193.435 11.4458C194.375 12.559 194.867 13.3154 195.358 14.0718C195.849 14.8282 196.341 15.5846 196.467 16.7834C196.593 17.9822 196.03 20.4655 196.03 20.4655Z" fill="#55CCC9" shape-rendering="crispEdges"/>
<path d="M169.483 26.4878C169.483 26.4878 169.765 28.2133 170.184 29.2422C170.504 30.0258 170.743 30.4457 171.209 31.1546C171.833 32.1038 172.271 32.588 173.09 33.381C173.894 34.1587 174.372 34.5903 175.337 35.165C176.133 35.6389 176.613 35.8693 177.499 36.1497C178.753 36.5464 179.529 36.7334 180.842 36.6065C181.81 36.5129 182.471 36.4352 183.244 35.95C184.017 35.4648 196.03 20.4655 196.03 20.4655C196.03 20.4655 196.593 17.9822 196.467 16.7834C196.341 15.5846 195.849 14.8282 195.358 14.0718C194.867 13.3154 194.375 12.559 193.435 11.4458C192.494 10.3326 192.045 9.9758 191.146 9.26221C190.248 8.54863 189.391 8.23464 188.534 7.92066C188.179 7.79047 187.971 7.71427 187.759 7.65033C187.46 7.56006 187.154 7.49424 186.414 7.3355C185.15 7.06433 184.335 7.14995 183.52 7.23558C182.706 7.3212 181.526 7.84923 181.526 7.84923M169.483 26.4878L166.632 26.7875M169.483 26.4878C169.483 26.4878 169.12 25.026 169.231 24.0902C169.355 23.0439 170.89 20.2797 170.201 21.5641M169.483 26.4878C166.225 26.8303 167.447 26.7019 166.632 26.7875M166.632 26.7875C165.817 26.8731 164.188 27.0443 163.008 27.5724C161.828 28.1004 161.163 28.4044 160.648 28.6285C160.133 28.8525 159.103 29.5989 158.33 30.0841C157.558 30.5694 156.054 31.9394 156.054 31.9394M156.054 31.9394C156.054 31.9394 154.13 34.2693 153.132 35.4787M156.054 31.9394C156.054 31.9394 154.228 34.1515 153.132 35.4787M153.132 35.4787C152.421 36.3394 151.79 37.5461 151.79 37.5461L151.024 38.9324C151.024 38.9324 150.357 40.3652 150.034 41.3206C149.905 41.7002 149.852 41.9317 149.731 42.3005C149.488 43.0334 149.411 43.888 149.329 44.7892C149.305 45.0505 149.252 45.583 149.252 45.583C149.252 45.583 149.116 48.2087 149.265 49.6218C149.322 50.1635 149.35 50.494 149.375 50.7749C149.414 51.2268 149.443 51.5505 149.559 52.4191C149.597 52.7049 149.611 52.8562 149.631 53.0741C149.644 53.2118 149.659 53.3761 149.685 53.6179M149.685 53.6179C150.931 53.563 151.328 53.6932 152.426 54.0538C152.488 54.0743 152.553 54.0955 152.62 54.1174C153.367 54.3618 153.801 54.5935 154.207 54.8105C154.396 54.9109 154.578 55.0082 154.782 55.1022C155.945 55.6358 156.835 56.354 157.571 56.9474C157.679 57.0346 157.784 57.1192 157.886 57.2001C158.68 57.831 159.103 58.2312 159.725 59.0269C160.16 59.5826 160.708 60.5397 160.708 60.5397L161.325 62.4949M149.685 53.6179C148.253 53.7683 147.648 53.8319 146.061 54.4028C144.474 54.9736 142.689 57.5853 144.15 55.8156M161.325 62.4949L161.493 64.0933M161.325 62.4949C161.325 62.4949 161.411 63.3131 161.493 64.0933M161.493 64.0933C161.575 64.8736 150.462 80.6054 149.689 81.0907C149.082 81.4722 148.846 81.5165 148.46 81.5889C148.356 81.6086 148.24 81.6303 148.102 81.6615C147.478 81.803 147.112 81.8438 146.473 81.8328C145.509 81.8161 144.954 81.6296 144.076 81.3345C144.033 81.32 143.99 81.3053 143.945 81.2904C143.146 81.0226 142.694 80.7845 142.004 80.4221C141.933 80.3847 141.859 80.3459 141.782 80.3056C141.078 79.9369 140.684 79.7233 140.027 79.2781C139.284 78.7743 138.887 78.4587 138.23 77.8509C137.649 77.3137 137.325 77.0031 136.84 76.3809C136.406 75.8244 136.205 75.4801 135.857 74.8681C135.803 74.7728 135.751 74.682 135.701 74.5947C135.297 73.8894 135.022 73.409 134.791 72.5561C134.545 71.6469 134.435 71.0951 134.539 70.1585C134.593 69.6649 134.82 68.9169 134.82 68.9169M134.82 68.9169C134.82 68.9169 134.15 68.9244 133.556 68.6457C132.836 68.3077 132.255 67.8319 131.759 67.2185C131.093 66.3955 130.733 65.9042 130.285 64.9493C130.009 64.3624 129.71 63.3937 129.71 63.3937C129.71 63.3937 129.008 60.6393 128.84 59.0409C128.788 58.5463 128.719 58.0542 128.644 57.5267C128.478 56.3494 128.287 54.996 128.21 53.0468C128.156 51.6792 128.25 50.2453 128.377 48.295C128.396 47.9981 128.416 47.6892 128.437 47.3667C128.592 44.9263 128.831 43.2851 129.071 41.6439C129.31 40.0027 129.31 40.0026 129.591 38.7611C129.685 38.3472 129.775 37.9403 129.865 37.5335C130.044 36.7199 130.224 35.9064 130.435 35.0361C130.671 34.0698 131.043 32.4549 131.645 30.8688C132.095 29.6815 132.363 29.1693 132.98 27.9003C133.669 26.4816 134.722 24.889 134.722 24.889C134.722 24.889 136.174 22.3305 137.196 20.9929C138.555 19.2135 140.118 17.4536 140.118 17.4536C140.118 17.4536 143.083 14.3139 144.586 12.9438C146.089 11.5738 147.227 10.6461 148.773 9.67568C150.318 8.70523 152.27 7.69196 152.27 7.69196C152.27 7.69196 154.223 6.67871 155.403 6.15066C156.583 5.62262 158.17 5.05178 158.17 5.05178C158.17 5.05178 159.35 4.52374 161.345 3.91008C163.339 3.29641 166.19 2.99675 166.19 2.99675C166.19 2.99675 169.856 2.61145 171.935 2.797C174.013 2.98255 175.727 3.61052 175.727 3.61052C175.727 3.61052 176.583 3.9245 177.889 4.59528C179.195 5.26605 179.645 5.62285 180.543 6.33644C181.442 7.05002 181.526 7.84923 181.526 7.84923M134.82 68.9169C134.82 68.9169 135.383 66.4336 135.101 67.6752M181.526 7.84923L179.208 9.30491C178.843 9.74733 181.526 7.84923 181.526 7.84923Z" stroke="black" stroke-opacity="0.2" shape-rendering="crispEdges"/>
</g>
<defs>
<filter id="filter0_d_632_69" x="34.312" y="7.12" width="93.3706" height="34.52" filterUnits="userSpaceOnUse" color-interpolation-filters="sRGB">
<feFlood flood-opacity="0" result="BackgroundImageFix"/>
<feColorMatrix in="SourceAlpha" type="matrix" values="0 0 0 0 0 0 0 0 0 0 0 0 0 0 0 0 0 0 127 0" result="hardAlpha"/>
<feOffset dy="4"/>
<feGaussianBlur stdDeviation="2"/>
<feComposite in2="hardAlpha" operator="out"/>
<feColorMatrix type="matrix" values="0 0 0 0 0 0 0 0 0 0 0 0 0 0 0 0 0 0 0.25 0"/>
<feBlend mode="normal" in2="BackgroundImageFix" result="effect1_dropShadow_632_69"/>
<feBlend mode="normal" in="SourceGraphic" in2="effect1_dropShadow_632_69" result="shape"/>
</filter>
<filter id="filter1_d_632_69" x="33.5513" y="43.704" width="221.017" height="36.656" filterUnits="userSpaceOnUse" color-interpolation-filters="sRGB">
<feFlood flood-opacity="0" result="BackgroundImageFix"/>
<feColorMatrix in="SourceAlpha" type="matrix" values="0 0 0 0 0 0 0 0 0 0 0 0 0 0 0 0 0 0 127 0" result="hardAlpha"/>
<feOffset dy="4"/>
<feGaussianBlur stdDeviation="2"/>
<feComposite in2="hardAlpha" operator="out"/>
<feColorMatrix type="matrix" values="0 0 0 0 0 0 0 0 0 0 0 0 0 0 0 0 0 0 0.25 0"/>
<feBlend mode="normal" in2="BackgroundImageFix" result="effect1_dropShadow_632_69"/>
<feBlend mode="normal" in="SourceGraphic" in2="effect1_dropShadow_632_69" result="shape"/>
</filter>
<filter id="filter2_d_632_69" x="123.695" y="2.24646" width="77.29" height="88.088" filterUnits="userSpaceOnUse" color-interpolation-filters="sRGB">
<feFlood flood-opacity="0" result="BackgroundImageFix"/>
<feColorMatrix in="SourceAlpha" type="matrix" values="0 0 0 0 0 0 0 0 0 0 0 0 0 0 0 0 0 0 127 0" result="hardAlpha"/>
<feOffset dy="4"/>
<feGaussianBlur stdDeviation="2"/>
<feComposite in2="hardAlpha" operator="out"/>
<feColorMatrix type="matrix" values="0 0 0 0 0 0 0 0 0 0 0 0 0 0 0 0 0 0 0.25 0"/>
<feBlend mode="normal" in2="BackgroundImageFix" result="effect1_dropShadow_632_69"/>
<feBlend mode="normal" in="SourceGraphic" in2="effect1_dropShadow_632_69" result="shape"/>
</filter>
</defs>
</svg>
