<svg width="227" height="227" viewBox="0 0 227 227" fill="none" xmlns="http://www.w3.org/2000/svg">
<path d="M60.954 169.605C56.3906 169.609 51.8776 168.652 47.7076 166.799C43.5377 164.945 39.804 162.236 36.7487 158.846C33.6934 155.457 31.3849 151.463 29.9728 147.123C28.5607 142.784 28.0766 138.196 28.552 133.658C16.9251 129.449 9.12988 117.695 9.12988 104.325C9.12988 95.6715 12.4804 87.3769 18.3325 81.5248C15.0762 76.4592 13.3588 70.558 13.3884 64.5362C13.3884 48.342 26.45 38.7217 39.4344 37.5232C39.874 33.8089 41.0559 30.221 42.9098 26.9726C44.7637 23.7243 47.2517 20.8818 50.226 18.6141C56.5287 13.7138 64.3774 11.2314 72.3517 11.6162C80.326 12.0009 87.8992 15.2273 93.701 20.7115C99.1581 11.9947 108.156 6.81006 117.84 6.81006C125.885 6.81006 133.367 10.3013 138.933 16.6482C143.707 13.9689 149.09 12.5619 154.564 12.5622C168.87 12.5622 181.854 22.3505 186.925 36.942C194.233 37.1117 201.183 40.1344 206.29 45.3635C211.397 50.5927 214.255 57.6128 214.252 64.9221C214.252 73.2257 209.585 82.7234 203.356 87.1998C209.367 93.456 212.263 101.337 211.528 109.446C209.839 127.819 196.26 137.417 186.925 137.417C185.936 144.531 181.809 151.182 175.28 156.162C169.001 160.957 161.056 163.708 153.488 163.708C144.559 163.65 135.98 160.224 129.467 154.115C123.742 163.286 114.299 168.747 104.129 168.747C96.6293 168.747 89.4243 165.751 83.8083 160.312C77.7152 166.304 69.5 169.645 60.954 169.605ZM70.8239 12.1945C57.2039 12.1945 41.7679 21.1792 40.011 37.8319L39.9837 38.0816L39.7386 38.1043C26.9448 39.1757 13.9968 48.6008 13.9968 64.5362C13.9706 70.5264 15.7073 76.392 18.9908 81.4023L19.127 81.6111L18.9499 81.7836C13.1024 87.5267 9.75186 95.7441 9.75186 104.325C9.75186 117.527 17.4699 129.118 28.9969 133.167L29.2194 133.249V133.485C29.0888 134.661 29.0221 135.843 29.0196 137.026C29.0315 143.337 30.9105 149.503 34.4199 154.748C37.9294 159.993 42.9124 164.082 48.7413 166.5C54.5703 168.919 60.9845 169.558 67.1762 168.338C73.3679 167.118 79.0601 164.093 83.5359 159.645L83.7493 159.436L83.9627 159.645C89.4924 165.093 96.6338 168.116 104.07 168.116C114.14 168.116 123.492 162.636 129.086 153.457L129.281 153.139L129.549 153.393C136.2 159.64 144.69 163.077 153.452 163.077C167.721 163.077 184.324 152.635 186.335 137.049L186.367 136.777H186.639C195.719 136.99 209.244 127.556 210.915 109.36C211.655 101.328 208.726 93.5059 202.67 87.3406L202.42 87.0818L202.715 86.8775C208.84 82.6735 213.648 73.0169 213.648 64.9221C213.617 57.7464 210.782 50.8673 205.747 45.7544C200.712 40.6416 193.877 37.7005 186.703 37.5595H186.494L186.426 37.3597C181.482 22.8771 168.679 13.1661 154.564 13.1661C149.111 13.1618 143.751 14.5812 139.015 17.2838L138.797 17.4019L138.638 17.2157C133.19 10.887 125.785 7.40026 117.84 7.40026C108.252 7.40026 99.3488 12.6167 94.0233 21.3562L93.8281 21.674L93.5603 21.4198C87.4365 15.5559 79.3023 12.2554 70.8239 12.1945Z" fill="#E0E0E0"/>
<path d="M95.9211 219.477L22.1279 176.842L138.924 109.391L212.717 152.026L95.9211 219.477Z" fill="#E0E0E0"/>
<path d="M146.551 212.776C145.745 212.788 144.949 212.593 144.24 212.209L142.501 211.205C142.137 211.062 141.824 210.811 141.604 210.488C141.383 210.164 141.266 209.781 141.266 209.389C141.266 208.998 141.383 208.615 141.604 208.291C141.824 207.967 142.137 207.717 142.501 207.573L165.406 194.312C163.363 192.042 162.459 189.495 162.777 186.885C163.186 183.557 165.619 180.447 169.637 178.127C173.982 175.616 179.748 174.236 185.872 174.236C191.997 174.236 197.762 175.598 202.112 178.127C206.574 180.701 209.031 184.17 209.031 187.888C209.031 191.606 206.574 195.07 202.112 197.644C197.762 200.155 191.997 201.535 185.877 201.535C179.975 201.535 174.399 200.25 170.114 197.903L149.139 212.041C148.365 212.53 147.466 212.785 146.551 212.776Z" fill="#E0E0E0"/>
<path d="M71.0737 214.615L65.7347 208.55L34.6266 190.526L33.4961 189.872L31.6483 188.805L31.5212 188.732H31.5666L29.7915 187.715L22.5275 183.534C21.1246 182.576 19.0226 184.519 18.2054 186.481C18.0794 186.773 17.9836 187.077 17.9194 187.389C17.7605 188.201 17.9194 188.937 18.5005 189.35L24.4025 192.759L26.0097 193.667L27.3353 194.43L27.4625 194.498L28.997 195.384C29.0134 195.404 29.0334 195.421 29.056 195.433L30.3454 196.164L62.1254 214.583L69.916 216.122L72.0362 216.544C72.0837 216.553 72.1328 216.551 72.1793 216.538C72.2258 216.524 72.2686 216.5 72.304 216.467C72.36 216.41 72.3914 216.334 72.3914 216.254C72.3914 216.174 72.36 216.097 72.304 216.041L71.0737 214.615Z" fill="#E0E0E0"/>
<path d="M205.562 182.022C205.562 179.058 203.605 176.089 199.682 173.828C191.842 169.288 179.134 169.288 171.294 173.828C167.376 176.098 165.415 179.058 165.415 182.022V187.47C165.415 190.439 167.376 193.404 171.294 195.665C179.134 200.205 191.842 200.205 199.682 195.665C203.605 193.395 205.562 190.439 205.562 187.47V182.022ZM172.265 175.507C175.766 173.487 180.46 172.375 185.49 172.375C190.521 172.375 195.211 173.487 198.711 175.507C201.889 177.323 203.623 179.648 203.623 182.022C203.623 184.397 201.88 186.708 198.711 188.537C195.211 190.558 190.516 191.67 185.49 191.67C180.465 191.67 175.766 190.558 172.265 188.537C169.087 186.721 167.358 184.397 167.358 182.022C167.358 179.648 169.101 177.337 172.265 175.507Z" fill="#019B98"/>
<path opacity="0.3" d="M171.294 190.226C179.135 194.766 191.842 194.766 199.683 190.226C207.523 185.686 207.523 178.363 199.683 173.837C191.842 169.31 179.135 169.297 171.294 173.837C163.454 178.377 163.44 185.686 171.294 190.226ZM167.354 182.031C167.354 179.657 169.097 177.346 172.266 175.516C175.766 173.496 180.46 172.384 185.486 172.384C190.512 172.384 195.211 173.496 198.711 175.516C201.889 177.332 203.619 179.657 203.619 182.031C203.619 184.406 201.876 186.717 198.711 188.546C195.211 190.567 190.512 191.679 185.486 191.679C180.46 191.679 175.766 190.567 172.266 188.546C169.097 186.708 167.354 184.397 167.354 182.022V182.031Z" fill="white"/>
<path d="M167.354 182.022C167.367 182.984 167.638 183.925 168.139 184.746C168.933 183.384 170.336 182.077 172.266 180.964C175.766 178.94 180.461 177.827 185.491 177.827C190.521 177.827 195.211 178.94 198.711 180.964C200.641 182.077 202.044 183.366 202.843 184.746C203.34 183.924 203.61 182.983 203.624 182.022C203.624 179.648 201.88 177.337 198.711 175.507C195.211 173.487 190.512 172.375 185.491 172.375C180.47 172.375 175.766 173.487 172.266 175.507C169.097 177.337 167.354 179.648 167.354 182.022Z" fill="#019B98"/>
<path opacity="0.1" d="M167.354 182.022C167.367 182.984 167.638 183.925 168.139 184.746C168.933 183.384 170.336 182.077 172.266 180.964C175.766 178.94 180.461 177.827 185.491 177.827C190.521 177.827 195.211 178.94 198.711 180.964C200.641 182.077 202.044 183.366 202.843 184.746C203.34 183.924 203.61 182.983 203.624 182.022C203.624 179.648 201.88 177.337 198.711 175.507C195.211 173.487 190.512 172.375 185.491 172.375C180.47 172.375 175.766 173.487 172.266 175.507C169.097 177.337 167.354 179.648 167.354 182.022Z" fill="black"/>
<path opacity="0.6" d="M172.265 177.968C175.766 175.948 180.46 174.835 185.486 174.835C190.512 174.835 195.211 175.948 198.711 177.968C201.321 179.475 202.965 181.314 203.46 183.244C202.965 185.173 201.321 187.012 198.711 188.524C195.211 190.544 190.512 191.656 185.486 191.656C180.46 191.656 175.766 190.544 172.265 188.524C169.65 187.012 168.011 185.173 167.517 183.244C168.011 181.328 169.65 179.489 172.265 177.968Z" fill="white"/>
<path opacity="0.1" d="M180.76 193.291V198.739C177.438 198.329 174.226 197.289 171.294 195.674C167.376 193.404 165.415 190.444 165.415 187.479V182.031C165.416 181.427 165.497 180.826 165.656 180.243C164.702 183.77 166.564 187.507 171.29 190.231C174.224 191.842 177.438 192.881 180.76 193.291Z" fill="black"/>
<path d="M171.894 193.695C171.868 193.206 171.728 192.731 171.485 192.307C171.242 191.883 170.903 191.521 170.495 191.252C170.354 191.15 170.188 191.087 170.014 191.069C169.841 191.05 169.665 191.077 169.506 191.148L162.75 195.002C162.608 195.104 162.495 195.242 162.423 195.401C162.35 195.56 162.321 195.736 162.337 195.91C162.362 196.398 162.502 196.873 162.745 197.296C162.988 197.72 163.327 198.08 163.735 198.348C163.877 198.452 164.043 198.517 164.218 198.535C164.393 198.553 164.569 198.525 164.729 198.453L171.485 194.598C171.626 194.496 171.738 194.359 171.81 194.201C171.882 194.042 171.91 193.868 171.894 193.695Z" fill="#37474F"/>
<path d="M171.471 194.607C171.616 194.507 171.731 194.37 171.805 194.21C171.879 194.051 171.91 193.874 171.893 193.699C171.884 193.336 171.802 192.978 171.653 192.646L162.94 197.64C163.148 197.934 163.414 198.183 163.721 198.371C163.863 198.475 164.03 198.54 164.204 198.558C164.379 198.576 164.555 198.548 164.716 198.475L171.471 194.621V194.607Z" fill="#263238"/>
<path d="M164.861 198.339C164.829 197.704 164.648 197.085 164.332 196.533C164.017 195.981 163.576 195.511 163.045 195.161C162.863 195.03 162.65 194.948 162.428 194.923C162.205 194.899 161.979 194.932 161.773 195.02L144.217 204.223L147.559 210.125L164.357 199.51C164.536 199.377 164.677 199.198 164.766 198.992C164.854 198.787 164.887 198.561 164.861 198.339Z" fill="#019B98"/>
<path opacity="0.1" d="M147.55 210.139L164.348 199.524C164.537 199.394 164.687 199.215 164.783 199.007C164.879 198.798 164.917 198.567 164.892 198.339C164.868 197.653 164.657 196.986 164.284 196.41L145.847 207.092L147.55 210.139Z" fill="black"/>
<path d="M145.847 209.962C145.151 209.503 144.572 208.886 144.158 208.162C143.744 207.438 143.506 206.627 143.464 205.794C143.464 204.259 144.549 203.646 145.87 204.432C146.566 204.891 147.145 205.507 147.559 206.231C147.973 206.955 148.211 207.767 148.254 208.6C148.249 210.116 147.169 210.733 145.847 209.962Z" fill="#019B98"/>
<g opacity="0.2">
<path d="M145.847 209.962C145.151 209.503 144.572 208.886 144.158 208.162C143.744 207.438 143.506 206.627 143.464 205.794C143.464 204.259 144.549 203.646 145.87 204.432C146.566 204.891 147.145 205.507 147.559 206.231C147.973 206.955 148.211 207.767 148.254 208.6C148.249 210.116 147.169 210.733 145.847 209.962Z" fill="black"/>
</g>
<path d="M25.0151 190.185L25.7415 190.603L26.6178 191.134L63.1738 212.295C62.9014 211.682 63.1148 210.479 63.7368 209.289C64.4632 207.927 65.5755 206.847 66.3836 206.806L30.0636 185.781L28.3793 184.778C29.4326 185.477 26.0775 190.857 25.0151 190.185Z" fill="#455A64"/>
<path d="M29.9638 185.709L28.3384 184.801C27.8844 184.514 26.9764 185.345 26.2319 186.444C25.2058 187.901 24.375 189.831 24.9879 190.208L26.1865 190.893L26.6405 191.134C26.0276 190.752 26.8584 188.823 27.8844 187.366C28.6199 186.317 29.4644 185.509 29.932 185.704L29.9638 185.709Z" fill="#EBEBEB"/>
<path d="M29.5734 185.482C28.502 184.819 25.156 190.221 26.2274 190.889L27.8527 191.824C26.7813 191.157 30.1228 185.754 31.1987 186.417L29.5734 185.482Z" fill="#019B98"/>
<path d="M32.7469 187.307L31.1443 186.399C30.0956 185.736 26.8132 190.939 27.703 191.751L27.7575 191.792L29.3783 192.7C28.3295 192.015 31.68 186.635 32.7469 187.307Z" fill="#EBEBEB"/>
<path d="M28.3795 184.778C27.9255 184.483 27.0447 185.318 26.2729 186.421C25.2605 187.852 24.4569 189.74 25.0063 190.158L18.2053 186.272C17.6605 185.899 17.538 185.236 17.6787 184.506C18.0555 182.531 20.3664 180.02 21.8328 181.019L28.3795 184.778Z" fill="#F28F8F"/>
<path d="M70.7061 212.522C70.1477 213.28 70.2021 213.652 70.2021 213.652L63.1742 212.29C62.4751 211.223 62.9336 209.494 63.9006 208.259L64.2093 208.436L70.7061 212.522Z" fill="#F28F8F"/>
<path d="M72.1135 214.029L70.2022 213.652C70.2022 213.652 70.1159 213.285 70.7061 212.522L72.3768 213.575C72.427 213.627 72.4551 213.696 72.4551 213.768C72.4551 213.84 72.427 213.909 72.3768 213.961C72.3423 213.994 72.3 214.017 72.2539 214.029C72.2079 214.041 72.1596 214.041 72.1135 214.029Z" fill="#37474F"/>
<path d="M66.375 206.783L71.1965 212.254C71.0037 212.285 70.8275 212.381 70.6971 212.526L64.2003 208.44L63.8916 208.263C64.559 207.401 65.4534 206.792 66.375 206.783Z" fill="#FFA8A7"/>
<path d="M70.7061 212.522C70.7639 212.442 70.8387 212.377 70.925 212.329C71.0114 212.282 71.1072 212.255 71.2055 212.25L72.3768 213.575L70.7061 212.522Z" fill="#455A64"/>
<path opacity="0.2" d="M63.9003 208.241L18.3641 182.857C18.0379 183.361 17.8056 183.919 17.6786 184.505C17.5333 185.241 17.6786 185.895 18.2097 186.272L25.0197 190.185L25.7461 190.603L26.6178 191.134L63.1739 212.295C62.3158 210.946 63.2556 208.994 63.9003 208.241Z" fill="black"/>
<path d="M34.649 81.7201C33.4868 84.4441 32.6877 87.7492 32.3336 91.9033C31.6708 99.7076 34.313 124.986 35.8975 136.291C38.1947 155.177 41.0095 155.209 45.1001 158.373C52.1416 163.821 72.3855 174.472 79.0684 177.101C91.1856 181.873 101.092 174.518 108.478 170.868C115.244 167.438 121.774 163.565 128.028 159.272C129.866 157.91 130.824 156.548 130.806 155.136C130.806 154.573 130.806 152.254 130.806 151.654C130.806 149.838 129.199 147.877 125.812 145.68C119.552 141.616 96.9333 128.428 88.1665 123.57C88.1641 123.552 88.1562 123.536 88.144 123.523C88.1318 123.51 88.1159 123.501 88.0984 123.497C81.352 119.411 77.2932 91.5765 72.6216 76.7715C72.5262 76.4537 72.4263 76.1495 72.3219 75.8635C72.2175 75.5775 72.1585 75.4095 72.0768 75.1734C71.7817 74.3653 71.482 73.6298 71.1688 72.9534" fill="#019B98"/>
<path d="M130.824 151.636C130.824 149.82 129.217 147.859 125.83 145.661C119.574 141.598 96.956 128.409 88.1893 123.552C88.1868 123.534 88.179 123.518 88.1668 123.505C88.1546 123.492 88.1387 123.483 88.1212 123.479C81.3747 119.393 77.316 91.5583 72.6443 76.7534C72.3676 75.8287 72.0418 74.9194 71.6682 74.0294C71.641 73.9613 71.6092 73.8977 71.582 73.8296C71.5002 73.6344 71.4094 73.4346 71.3141 73.2303C71.2732 73.1305 71.2278 73.026 71.1824 72.9262C70.4243 71.3326 69.3664 69.5847 68.0635 68.4225C67.6065 67.9971 67.0932 67.6366 66.538 67.351C65.7798 66.897 64.1863 66.0344 63.7868 65.8029C59.2059 63.0789 53.1995 66.3522 45.7085 70.4519C41.055 73.0033 37.0825 76.0406 34.6627 81.6929C33.5004 84.4169 32.7014 87.722 32.3473 91.8761C31.6844 99.6804 34.3267 124.959 35.9112 136.264C38.2084 155.15 41.0232 155.182 45.1138 158.346C52.1553 163.794 72.3992 174.445 79.082 177.074C91.1993 181.845 101.106 174.49 108.492 170.84C115.879 167.19 124.945 161.515 128.05 159.259C129.894 157.897 130.852 156.535 130.833 155.123C130.811 154.574 130.824 152.254 130.824 151.636Z" fill="#019B98"/>
<path opacity="0.25" d="M130.824 151.636C130.824 149.82 129.217 147.859 125.83 145.661C119.574 141.598 96.956 128.409 88.1893 123.552C88.1868 123.534 88.179 123.518 88.1668 123.505C88.1546 123.492 88.1387 123.483 88.1212 123.479C81.3747 119.393 77.316 91.5583 72.6443 76.7534C72.3676 75.8287 72.0418 74.9194 71.6682 74.0294C71.641 73.9613 71.6092 73.8977 71.582 73.8296C71.5002 73.6344 71.4094 73.4346 71.3141 73.2303C71.2732 73.1305 71.2278 73.026 71.1824 72.9262C70.4243 71.3326 69.3664 69.5847 68.0635 68.4225C67.6065 67.9971 67.0932 67.6366 66.538 67.351C65.7798 66.897 64.1863 66.0344 63.7868 65.8029C59.2059 63.0789 53.1995 66.3522 45.7085 70.4519C41.055 73.0033 37.0825 76.0406 34.6627 81.6929C33.5004 84.4169 32.7014 87.722 32.3473 91.8761C31.6844 99.6804 34.3267 124.959 35.9112 136.264C38.2084 155.15 41.0232 155.182 45.1138 158.346C52.1553 163.794 72.3992 174.445 79.082 177.074C91.1993 181.845 101.106 174.49 108.492 170.84C115.879 167.19 124.945 161.515 128.05 159.259C129.894 157.897 130.852 156.535 130.833 155.123C130.811 154.574 130.824 152.254 130.824 151.636Z" fill="white"/>
<path d="M108.47 167.345C115.238 163.918 121.772 160.046 128.028 155.754C132.227 152.708 131.841 149.584 125.821 145.68C117.459 140.254 83.3679 120.909 83.3679 120.909C83.3679 120.909 40.2697 146.333 42.122 151.041C43.9743 155.749 70.6514 170.268 79.0594 173.573C91.1812 178.34 101.088 170.99 108.47 167.345Z" fill="#019B98"/>
<path opacity="0.6" d="M108.47 167.345C115.238 163.918 121.772 160.046 128.028 155.754C132.227 152.708 131.841 149.584 125.821 145.68C117.459 140.254 83.3679 120.909 83.3679 120.909C83.3679 120.909 40.2697 146.333 42.122 151.041C43.9743 155.749 70.6514 170.268 79.0594 173.573C91.1812 178.34 101.088 170.99 108.47 167.345Z" fill="white"/>
<path d="M66.5243 67.3737C61.9843 64.9902 56.0823 68.2272 48.8183 72.2224C44.1466 74.783 40.165 77.8203 37.7452 83.4953L34.6489 81.7201C37.0642 76.0678 41.0412 73.0306 45.6947 70.4791C53.1857 66.3931 59.1922 63.088 63.773 65.8301C64.1725 66.0571 65.7661 66.9424 66.5243 67.3737Z" fill="#019B98"/>
<path opacity="0.5" d="M66.5243 67.3737C61.9843 64.9902 56.0823 68.2272 48.8183 72.2224C44.1466 74.783 40.165 77.8203 37.7452 83.4953L34.6489 81.7201C37.0642 76.0678 41.0412 73.0306 45.6947 70.4791C53.1857 66.3931 59.1922 63.088 63.773 65.8301C64.1725 66.0571 65.7661 66.9424 66.5243 67.3737Z" fill="white"/>
<path d="M72.6395 76.7714C72.5442 76.4536 70.9824 71.0238 68.0541 68.4451C66.6952 67.2246 64.932 66.5517 63.1055 66.5564C59.1421 66.5564 54.3887 69.176 48.8091 72.2223C48.346 72.4796 47.892 72.7429 47.4471 73.0123C47.27 73.1122 47.0975 73.2166 46.9295 73.321C46.7615 73.4254 46.5164 73.5753 46.3121 73.7069C46.1078 73.8386 46.0124 73.8976 45.8581 74.002C44.8758 74.6492 43.9384 75.3621 43.0523 76.1358C42.9071 76.2584 42.7709 76.3855 42.6301 76.5217C42.0683 77.0422 41.5363 77.5939 41.0366 78.1743L40.7687 78.4875C40.6643 78.6192 40.5508 78.7509 40.4555 78.8825C40.3601 79.0142 40.2512 79.1504 40.1467 79.2911C40.0423 79.4319 39.947 79.559 39.8516 79.7043C39.448 80.2788 39.0752 80.8744 38.7348 81.4885C38.6894 81.5657 38.644 81.6428 38.6031 81.7246C38.5123 81.888 38.4261 82.056 38.3398 82.2285C38.2172 82.4782 38.0992 82.7279 37.9812 82.9776C36.71 85.7788 35.8292 89.2428 35.4569 93.6511C34.3719 106.472 38.7666 148.853 43.1749 152.508C43.1749 152.508 42.4985 148.363 51.3469 142.778C57.376 138.988 61.6073 135.801 68.0405 132.645C83.7171 124.927 88.1164 123.497 88.1164 123.497C81.3654 119.402 77.3066 91.5764 72.6395 76.7714Z" fill="#019B98"/>
<path opacity="0.4" d="M72.6395 76.7714C72.5442 76.4536 70.9824 71.0238 68.0541 68.4451C66.6952 67.2246 64.932 66.5517 63.1055 66.5564C59.1421 66.5564 54.3887 69.176 48.8091 72.2223C48.346 72.4796 47.892 72.7429 47.4471 73.0123C47.27 73.1122 47.0975 73.2166 46.9295 73.321C46.7615 73.4254 46.5164 73.5753 46.3121 73.7069C46.1078 73.8386 46.0124 73.8976 45.8581 74.002C44.8758 74.6492 43.9384 75.3621 43.0523 76.1358C42.9071 76.2584 42.7709 76.3855 42.6301 76.5217C42.0683 77.0422 41.5363 77.5939 41.0366 78.1743L40.7687 78.4875C40.6643 78.6192 40.5508 78.7509 40.4555 78.8825C40.3601 79.0142 40.2512 79.1504 40.1467 79.2911C40.0423 79.4319 39.947 79.559 39.8516 79.7043C39.448 80.2788 39.0752 80.8744 38.7348 81.4885C38.6894 81.5657 38.644 81.6428 38.6031 81.7246C38.5123 81.888 38.4261 82.056 38.3398 82.2285C38.2172 82.4782 38.0992 82.7279 37.9812 82.9776C36.71 85.7788 35.8292 89.2428 35.4569 93.6511C34.3719 106.472 38.7666 148.853 43.1749 152.508C43.1749 152.508 42.4985 148.363 51.3469 142.778C57.376 138.988 61.6073 135.801 68.0405 132.645C83.7171 124.927 88.1164 123.497 88.1164 123.497C81.3654 119.402 77.3066 91.5764 72.6395 76.7714Z" fill="white"/>
<path d="M52.1327 126.117C49.3724 134.616 49.4859 143.01 50.8479 147.609C52.2099 152.208 53.6717 158.55 66.0205 164.757C80.0945 171.834 96.5884 178.649 96.5884 178.649L145.448 150.401L99.7073 127.828L52.1327 126.117Z" fill="#019B98"/>
<path opacity="0.15" d="M52.1327 126.117C49.3724 134.616 49.4859 143.01 50.8479 147.609C52.2099 152.208 53.6717 158.55 66.0205 164.757C80.0945 171.834 96.5884 178.649 96.5884 178.649L145.448 150.401L99.7073 127.828L52.1327 126.117Z" fill="black"/>
<path opacity="0.35" d="M66.2841 155.577C65.88 155.218 65.4896 154.859 65.1128 154.496C68.3997 153.27 69.9751 148.88 69.0898 144.19C68.5859 141.498 68.0093 138.447 68.091 135.496H67.4917C67.41 138.511 67.9911 141.598 68.5041 144.318C69.4121 149.053 67.7596 153.112 64.627 154.047C57.3993 146.937 57.6717 139.319 59.8373 129.027L59.2516 128.904C56.8772 140.186 57.136 148.267 65.8846 156.044C71.6367 161.156 93.7919 170.895 102.59 175.194L103.222 174.845C94.4548 170.55 72.0544 160.716 66.2841 155.577Z" fill="black"/>
<path opacity="0.35" d="M100.897 135.991C99.6619 141.975 96.1797 145.112 96.1797 145.112C103.702 149.539 120.737 159.077 125.095 162.169L129.957 159.354L100.502 143.292C102.113 138.983 100.897 135.991 100.897 135.991Z" fill="black"/>
<path d="M58.0525 31.7801C57.8391 24.7295 71.5182 16.9071 84.4708 25.4241C97.4234 33.9411 92.8108 42.2221 91.9391 44.7373L92.3931 80.971L50.3481 79.8178C50.3481 79.8178 51.2561 49.3998 51.1018 44.4058C50.9474 39.4118 52.6272 33.5961 58.0525 31.7801Z" fill="#263238"/>
<path d="M100.897 114.354L109.205 110.567L112.66 108.388C110.953 101.347 106.304 90.328 102.931 82.9959C100.207 77.0667 97.8051 75.228 88.6934 73.2031L89.7058 88.5302L100.897 114.354Z" fill="#455A64"/>
<path d="M49.4855 138.42C49.6853 129.967 52.4501 121.377 52.3911 119.529C52.1233 111.512 49.7761 101.02 48.9725 96.3753C47.2246 86.2693 48.405 78.2607 50.7204 76.2086C50.7204 76.2086 58.3794 73.4438 61.2986 72.6765C63.051 72.2225 61.68 72.6765 64.3586 72.2225C68.8306 71.4948 73.3698 71.2664 77.8923 71.5415C78.9955 71.6278 84.2256 72.4087 84.2256 72.4087C85.8146 72.7401 88.7066 73.1986 88.7111 73.2032C88.7157 73.2077 92.3794 76.0634 95.8889 82.0108C98.5675 86.5508 98.6673 95.1768 98.8035 104.665C98.9851 117.218 99.6525 120.483 101.863 128.886C95.8889 141.857 63.0465 145.929 49.4855 138.42Z" fill="#37474F"/>
<path d="M50.7022 76.2085C46.9431 77.3299 43.8287 79.0415 42.9842 86.3781C42.1398 93.7147 48.6774 110.708 49.7942 113.559C50.9111 116.41 53.6714 120.592 56.2819 121.404C58.8924 122.217 60.9399 101.483 60.9399 101.483C60.9399 101.483 58.6154 90.7138 57.662 87.4632C56.7086 84.2125 53.7349 78.0563 50.7022 76.2085Z" fill="#455A64"/>
<path d="M86.5456 34.6177C81.6061 30.9539 72.8756 31.2354 65.6116 36.8469C68.0042 41.2325 64.3586 44.4196 64.3087 47.1118C65.5118 50.8709 63.5459 52.6551 62.3338 51.3249C60.4633 47.5204 56.4772 47.6929 54.8609 50.2035C53.399 52.4735 53.7532 55.8104 56.7586 58.8931C59.6869 61.9031 62.5835 59.9918 62.6107 59.3471C62.6107 59.3471 63.4551 67.6462 63.5596 69.3079C63.664 70.9695 63.4778 71.6777 61.2896 72.5449C70.2788 75.1327 77.116 75.3188 80.0307 71.1057C78.646 70.7561 78.6959 69.7119 78.5325 68.3318L78.1784 65.5714C81.5016 65.6078 83.1996 65.2446 85.0247 64.1141C87.7487 62.4252 89.7962 57.9942 89.4693 49.1321C89.2151 42.5809 87.5217 36.9104 86.5456 34.6177Z" fill="#FFBDA7"/>
<path d="M78.1649 65.5896C72.1903 65.4171 66.3609 63.8826 64.8491 61.2766C64.8491 61.2766 65.0398 64.2322 67.5459 65.4716C71.0644 67.2059 78.4419 67.678 78.4419 67.678L78.1649 65.5896Z" fill="#B16668"/>
<path d="M82.042 37.4871L85.5242 38.8854C85.4412 39.1139 85.3131 39.3235 85.1475 39.5016C84.982 39.6797 84.7824 39.8227 84.5605 39.9222C84.3386 40.0217 84.099 40.0757 83.8559 40.0808C83.6128 40.086 83.3711 40.0423 83.1452 39.9523C82.6827 39.7583 82.3112 39.3956 82.1064 38.9377C81.9015 38.4799 81.8785 37.9612 82.042 37.4871Z" fill="#263238"/>
<path d="M81.5972 35.9933C81.5608 35.9517 81.5116 35.9233 81.4574 35.9127C81.4032 35.902 81.347 35.9096 81.2975 35.9343C81.0136 36.1519 80.7873 36.4357 80.6385 36.761C80.4897 37.0863 80.4229 37.4432 80.444 37.8002C80.4562 37.9295 80.4867 38.0564 80.5348 38.1771C80.5818 38.3255 80.6719 38.4567 80.7936 38.5539C80.8086 38.5673 80.828 38.5747 80.8481 38.5747C80.8682 38.5747 80.8876 38.5673 80.9025 38.5539C81.016 38.4585 80.9706 38.2542 80.9706 38.0999C80.9706 37.9455 80.9706 37.891 80.9706 37.7821C80.9723 37.5883 81.0013 37.3957 81.0569 37.21C81.1697 36.8479 81.3765 36.522 81.6562 36.2657C81.7197 36.1976 81.6607 36.0569 81.5972 35.9933ZM76.1492 38.3541C76.0806 38.2455 75.9947 38.1489 75.8949 38.0681C75.784 37.9589 75.6435 37.8847 75.4909 37.8547C75.471 37.8507 75.4504 37.8535 75.4323 37.8625C75.4142 37.8716 75.3997 37.8864 75.391 37.9047C75.3365 38.0454 75.4727 38.2043 75.5408 38.3269C75.6089 38.4495 75.6498 38.5085 75.6997 38.5993C75.7888 38.7714 75.8544 38.9546 75.8949 39.1441C75.9651 39.5193 75.9337 39.9064 75.8041 40.2655C75.7723 40.3699 75.8904 40.4698 75.9812 40.4925C76.0325 40.5112 76.0884 40.5129 76.1407 40.4974C76.1931 40.4818 76.239 40.4499 76.2717 40.4062C76.4831 39.9667 76.533 39.4668 76.4125 38.9943C76.3584 38.7655 76.263 38.5486 76.131 38.3541H76.1492Z" fill="#F0997A"/>
<path d="M70.8916 41.1643L74.4011 39.7115C74.3189 39.4776 74.1898 39.2629 74.0215 39.0808C73.8533 38.8987 73.6495 38.7529 73.4228 38.6526C73.1961 38.5522 72.9513 38.4993 72.7033 38.4971C72.4554 38.495 72.2097 38.5436 71.9813 38.6401C71.511 38.8413 71.1358 39.2153 70.9331 39.6849C70.7304 40.1546 70.7155 40.6841 70.8916 41.1643Z" fill="#263238"/>
<path d="M71.3366 46.2629C71.5091 47.0983 72.5261 47.6022 73.6066 47.3798C74.6871 47.1573 75.4226 46.3038 75.2546 45.4684C75.0866 44.6331 74.5373 46.0359 73.4386 46.2584C72.3399 46.4809 71.1595 45.4276 71.3366 46.2629Z" fill="#263238"/>
<path d="M82.7137 45.1369C82.6184 45.9859 83.4265 46.7804 84.5297 46.9121C85.6329 47.0437 86.5954 46.4581 86.6907 45.6136C86.7861 44.7692 85.8372 45.9314 84.7385 45.7998C83.6398 45.6681 82.809 44.2879 82.7137 45.1369Z" fill="#263238"/>
<path d="M80.7754 56.2191C80.6963 56.1503 80.6095 56.0909 80.5167 56.042C80.3953 56.0025 80.2707 55.9737 80.1444 55.9557L79.5224 55.8377C79.0684 55.7605 78.6144 55.6879 78.1831 55.6289C77.7518 55.5698 77.2479 55.5017 76.7757 55.4563C76.3088 55.384 75.8355 55.3611 75.3638 55.3882C75.1685 55.3882 75.2003 55.6697 75.3638 55.7378C75.8299 55.8888 76.3137 55.9789 76.8029 56.0057C77.2569 56.0692 77.7109 56.1283 78.1649 56.1964L79.4815 56.3825C79.9256 56.5025 80.3908 56.5227 80.8435 56.4415C80.9253 56.4097 80.8118 56.2508 80.7754 56.2191Z" fill="#B16668"/>
<path d="M66.2428 42.6763L57.2036 48.4965C57.7022 48.3679 58.2213 48.3394 58.7309 48.4127C59.2406 48.4859 59.7306 48.6595 60.1728 48.9233L66.6695 44.8055L66.2428 42.6763Z" fill="#455A64"/>
<path d="M90.704 40.429C88.3386 40.311 85.1516 40.429 83.2493 41.1872C81.12 42.0362 80.3891 42.8534 79.1951 42.9578C77.9103 43.0622 77.0613 42.3767 74.7232 41.8955C72.8572 41.5186 69.5884 41.9363 67.2594 42.3767C66.4558 42.4493 65.734 42.749 65.7794 43.8204C65.9292 44.8192 66.592 44.9327 66.81 45.7363C67.3593 48.5284 68.3082 51.9924 71.9946 51.9016C79.6082 51.8244 76.7162 44.6058 79.5265 44.7829C80.5435 44.9373 80.5162 46.8895 81.2199 48.2288C81.485 48.7637 81.8363 49.2515 82.2596 49.6725C84.8973 52.115 89.5009 50.3353 90.0548 47.6885C90.6041 46.3583 90.3635 44.2926 90.9628 43.1485C91.5076 42.5765 91.8844 40.6379 90.704 40.429ZM76.6754 47.2163C76.5552 48.0067 76.2331 48.7526 75.7401 49.3819C75.3615 49.8233 74.8941 50.18 74.3685 50.4288C73.8428 50.6775 73.2707 50.8127 72.6893 50.8256C71.0503 50.9301 69.3614 50.2808 68.8348 48.7191C68.7712 48.5738 68.7122 48.4331 68.6577 48.2969C68.2582 47.1392 67.6635 44.6649 68.2446 43.9021C69.3115 42.6173 74.7595 42.3358 76.4711 44.061C76.9432 44.6422 76.8751 46.0132 76.6754 47.2163ZM89.5826 45.7C89.4509 46.5263 89.1604 48.3196 87.6486 49.2185C85.6464 50.4034 82.6909 49.5317 82.1279 47.5478C80.6161 43.4073 82.196 42.3177 86.3728 41.614C89.8323 41.3552 90.082 42.2223 89.5826 45.6773V45.7Z" fill="#455A64"/>
<path d="M84.2529 50.93L79.4904 53.654L78.1284 46.1131C78.2057 45.7398 78.383 45.3945 78.6414 45.1143L84.2529 50.93Z" fill="#F0997A"/>
<path d="M63.4778 68.3091C62.1158 68.6223 62.2066 69.0173 62.1158 70.6199C62.025 72.2225 60.3589 72.3043 60.2317 72.9716C60.1046 73.639 65.3665 78.7965 74.51 77.0803C83.59 75.3824 82.6412 71.5597 82.6412 71.5597C82.3143 71.024 81.6106 70.9831 80.4983 70.6018C79.386 70.2204 79.3633 69.9435 79.3451 69.1172C79.327 68.2909 79.1272 68.0911 78.5098 68.3499V68.9991C78.5098 68.9991 78.5098 70.6154 72.6305 70.9604C66.2064 71.3372 63.5505 69.326 63.5505 69.326L63.4778 68.3091Z" fill="#455A64"/>
<path d="M70.3697 63.5238C70.961 64.5196 71.1463 65.7047 70.8873 66.8335C70.7193 67.5054 70.1382 67.8822 69.834 68.486C69.3528 69.4349 69.1258 70.4972 68.472 71.3689C68.1069 71.9155 67.5493 72.3045 66.9103 72.4585C66.7058 71.9583 66.6506 71.4095 66.7514 70.8786C67.0513 69.0102 67.1775 67.118 67.1282 65.2263C67.0761 64.3715 66.9237 63.5258 66.6742 62.7066C66.5561 62.3071 66.2202 61.2175 66.7559 60.9587C66.8932 60.9048 67.0435 60.8938 67.1872 60.9269C68.5492 61.104 69.3528 61.8576 70.0701 62.9972C70.1881 63.1697 70.2926 63.3467 70.3697 63.5238Z" fill="#FFBDA7"/>
<path d="M68.4994 71.369C68.136 71.9391 67.5669 72.3472 66.9104 72.5086C66.5018 71.7277 66.7334 70.8242 66.806 69.998C67.0739 67.5509 67.3236 65.0312 66.5427 62.6522C65.8935 60.4912 67.0602 60.4594 68.6719 61.3266C70.3063 62.5342 71.4459 64.8087 70.9056 66.8336C71.3006 65.1856 70.4925 63.5466 69.471 62.2936C68.9585 61.6613 68.2403 61.229 67.4416 61.0723C67.0739 60.9997 66.6607 60.927 66.6062 61.4083C66.6062 62.6159 67.26 63.7963 67.26 65.0403C67.336 66.7103 67.2402 68.3838 66.974 70.0343C66.8786 70.8469 66.638 71.6914 66.974 72.4541L66.9286 72.4314C67.5651 72.291 68.1257 71.9167 68.4994 71.3827V71.369Z" fill="#B16668"/>
<path d="M65.0352 80.3582C66.0884 75.1372 65.8115 72.7128 67.514 70.1749C68.5037 68.6949 71.6 65.3716 72.6306 64.4364C73.6612 63.5011 75.6633 62.2345 77.2705 60.9633C78.8776 59.6921 79.3452 59.338 81.2566 59.4106C83.8807 59.515 85.9509 59.5332 86.8816 60.0417C87.8123 60.5501 87.6444 61.1994 86.6002 61.8985C85.556 62.5977 83.69 62.4252 83.0907 62.4796C82.4915 62.5341 81.1431 62.8111 81.1431 62.8111L78.0877 65.753C78.0877 65.753 81.9149 67.3238 82.605 67.9095C83.295 68.4951 83.5402 70.6335 82.9636 71.7004C82.9636 71.7004 84.2167 72.9943 83.345 74.3109C83.345 74.3109 83.9942 75.6729 83.1815 76.4855C82.2936 77.3066 81.3141 78.0225 80.2623 78.6193C79.6857 78.9371 77.7472 78.642 77.7472 78.642C77.4621 79.8697 77.0655 81.0687 76.5622 82.2241C75.4772 84.4078 74.324 84.544 73.8382 86.4645L65.0352 80.3582Z" fill="#FFBDA7"/>
<path d="M82.9002 71.782C82.4169 71.1601 81.8553 70.6031 81.2295 70.1249C80.6438 69.6709 79.3862 68.9082 79.3862 68.9082C80.3164 69.1878 81.2005 69.6023 82.0103 70.1385C82.4234 70.4069 82.8123 70.7107 83.1726 71.0465C83.1302 71.2689 83.0536 71.4833 82.9456 71.6821L82.9002 71.782Z" fill="#F0997A"/>
<path d="M82.746 73.1486C83.0355 73.3462 83.3102 73.5647 83.5678 73.8024C83.4965 74.0164 83.3989 74.2208 83.2772 74.4108C82.914 73.5618 81.1025 72.3269 81.1025 72.3269C81.6798 72.5376 82.2312 72.8132 82.746 73.1486Z" fill="#F0997A"/>
<path d="M77.729 78.6421C78.26 77.7342 78.9895 76.9582 79.8628 76.3721C80.5801 75.8318 81.6788 76.1633 81.8468 76.5946C82.0148 77.0259 80.7345 76.708 80.3259 76.7943C79.9173 76.8806 78.6098 77.7341 77.729 78.6421Z" fill="#F0997A"/>
<path d="M77.0024 65.4217C77.0024 65.4217 77.9468 64.5455 79.5948 63.1835C81.2428 61.8215 81.1111 62.0439 82.4323 62.0575C83.6626 62.0575 86.2368 62.1529 87.0495 61.5264C86.9058 61.6525 86.7542 61.7693 86.5955 61.8759C85.5785 62.5524 83.6853 62.4026 83.086 62.4571C82.4868 62.5115 81.1384 62.7885 81.1384 62.7885L77.9604 65.8394L77.0024 65.4217Z" fill="#F0997A"/>
<path d="M65.0352 80.3582C65.3938 78.6375 65.6526 76.8941 65.9205 75.1553C66.1883 73.4165 66.5561 71.6641 67.5594 70.2113C68.617 68.8088 69.7603 67.4731 70.9826 66.2115C71.5909 65.5759 72.1947 64.9358 72.844 64.3501C73.4932 63.7645 74.2287 63.2787 74.946 62.7702C75.6633 62.2617 76.3852 61.7532 77.0843 61.2175C77.7371 60.6389 78.4601 60.1447 79.2363 59.7466C80.0353 59.4197 80.9297 59.5014 81.8059 59.5332C82.6821 59.565 83.5629 59.5922 84.4391 59.6603C85.3153 59.7284 86.2188 59.7829 86.9407 60.2096C87.1161 60.3027 87.2575 60.4489 87.3447 60.6273C87.3744 60.715 87.3817 60.8087 87.3658 60.8999C87.3499 60.9911 87.3115 61.0769 87.2539 61.1494C86.9971 61.4841 86.6661 61.7545 86.2869 61.9394C85.4783 62.2436 84.6168 62.3825 83.7536 62.348C83.5311 62.348 83.2996 62.348 83.0862 62.348L82.4279 62.4615L81.1204 62.6885H81.0886H81.0659L78.0014 65.6576L77.897 65.7621L78.0332 65.8211C79.3952 66.4022 80.8071 66.9742 82.1192 67.687C82.832 67.9776 83.0272 68.7675 83.1407 69.503C83.2632 70.2307 83.1717 70.9783 82.8774 71.655L82.8501 71.7049L82.891 71.7503C83.2029 72.091 83.4205 72.5073 83.522 72.958C83.6119 73.4109 83.5188 73.8809 83.2633 74.2655L83.2406 74.3018V74.3381C83.4051 74.6372 83.4914 74.9729 83.4914 75.3142C83.4914 75.6555 83.4051 75.9913 83.2406 76.2903C82.7606 76.8028 82.2245 77.2597 81.6425 77.6523C81.3565 77.8566 81.0614 78.0564 80.7663 78.2425C80.5005 78.4585 80.1905 78.6135 79.8583 78.6965C79.1581 78.7494 78.4542 78.7204 77.7608 78.6103H77.7108V78.6557C77.4165 80.1022 76.9214 81.5004 76.2399 82.8098C75.8467 83.4374 75.3904 84.0231 74.8779 84.5577C74.3724 85.1034 74.0146 85.7691 73.8382 86.4917C74.0233 85.7739 74.3872 85.1148 74.896 84.5758C75.4086 84.0445 75.865 83.4619 76.258 82.837C76.9591 81.5287 77.474 80.129 77.788 78.6784L77.729 78.7192C78.43 78.8434 79.1441 78.877 79.8537 78.8191C80.2102 78.7464 80.5445 78.5909 80.8298 78.3651C81.134 78.179 81.4246 77.9837 81.7151 77.7794C82.3096 77.3887 82.8579 76.9318 83.3495 76.4174C83.5357 76.1002 83.638 75.7407 83.6467 75.3729C83.6554 75.0051 83.5704 74.6412 83.3995 74.3154V74.3881C83.6763 73.9715 83.7775 73.4624 83.6809 72.9716C83.575 72.4895 83.3449 72.0435 83.0136 71.6777V71.773C83.3294 71.0608 83.4304 70.2718 83.3041 69.503C83.2594 69.122 83.1616 68.7492 83.0136 68.3953C82.8507 68.0322 82.5621 67.7404 82.2009 67.5735C80.8726 66.8721 79.5088 66.2402 78.1149 65.6803L78.1467 65.8438L81.2203 62.8837L81.1703 62.9109L82.4597 62.693L83.1089 62.5841C83.3177 62.5841 83.5402 62.5841 83.7581 62.5841C84.6562 62.6238 85.5528 62.4769 86.3913 62.1528C86.8066 61.9498 87.1676 61.651 87.4446 61.2811C87.5224 61.179 87.5732 61.0589 87.5923 60.9319C87.6113 60.8049 87.598 60.6752 87.5536 60.5547C87.4476 60.3344 87.2764 60.1521 87.0632 60.0326C86.246 59.5786 85.329 59.5468 84.4573 59.4605C83.5856 59.3743 82.6958 59.3743 81.815 59.3425C80.9342 59.3107 80.0262 59.2335 79.1727 59.5831C78.3829 59.9922 77.6464 60.4969 76.9799 61.0859C76.2898 61.6261 75.5725 62.1346 74.8552 62.6476C74.1379 63.1606 73.416 63.66 72.7486 64.2457C72.0812 64.8314 71.491 65.4851 70.8872 66.1253C69.6616 67.3934 68.5182 68.7384 67.4641 70.1522C66.4516 71.6368 66.1021 73.4256 65.8614 75.1462C65.6208 76.8669 65.3757 78.6103 65.0352 80.3582Z" fill="#B16668"/>
<path d="M65.0352 80.3582C64.1272 84.9799 52.6683 102.504 51.6604 106.813C50.6525 111.121 53.5263 119.33 55.6647 121.059C57.803 122.789 62.8424 120.85 65.4348 116.065C68.0271 111.28 72.2765 93.0702 73.8247 86.4645L65.0352 80.3582Z" fill="#FFBDA7"/>
<path d="M50.2348 116.224C50.6525 116.928 51.5514 117.586 51.674 118.322C51.9736 120.192 55.9416 121.141 57.4443 122.462C61.6893 125.141 72.2402 124.968 80.2442 123.574C93.2786 121.304 107.938 116.201 111.311 112.415C113.345 110.145 112.887 108.438 112.188 107.344C110.907 105.328 109.386 104.584 108.524 104.043C104.892 101.773 100.193 102.227 98.7538 102.65C93.1261 106.08 87.1667 108.933 80.9661 111.167C78.7996 111.847 76.5523 112.236 74.2832 112.324C72.8758 112.283 72.0404 112.279 71.2187 111.444C69.9025 110.112 68.3667 109.017 66.6787 108.206C65.3167 107.535 64.554 106.94 62.8651 105.596C62.5155 105.31 61.9208 105.528 61.5984 105.85C61.4463 106.025 61.3388 106.234 61.2851 106.459C61.2313 106.685 61.2329 106.92 61.2897 107.144C61.6257 109.441 63.5098 111.012 64.781 112.833C65.1863 113.305 65.3958 113.914 65.3666 114.535C65.2946 114.837 65.1467 115.115 64.9369 115.343C64.7271 115.571 64.4624 115.741 64.1681 115.838C62.4883 116.487 53.8804 116.637 49.8398 113.695C49.8398 113.714 49.6628 115.257 50.2348 116.224Z" fill="#FFBDA7"/>
<path d="M71.2186 111.462C70.1195 110.293 68.8508 109.297 67.4549 108.506C66.7512 108.111 66.0384 107.78 65.3847 107.33C64.7309 106.881 64.1135 106.39 63.4915 105.891L63.0375 105.514C62.9442 105.43 62.8339 105.367 62.714 105.329C62.5941 105.292 62.4675 105.28 62.3429 105.296C62.1113 105.322 61.8892 105.403 61.695 105.531C61.5008 105.66 61.34 105.833 61.226 106.036C61.0449 106.445 61.0065 106.902 61.1171 107.335C61.1862 107.743 61.3019 108.142 61.4621 108.524C62.1113 110.063 63.2781 111.248 64.2224 112.479C64.6764 113.096 65.2121 113.759 65.1622 114.444C65.1123 115.13 64.4131 115.643 63.6912 115.77C62.1328 116.026 60.5511 116.111 58.9742 116.024C57.3875 115.97 55.8089 115.774 54.2571 115.439C52.6913 115.144 51.1945 114.559 49.8442 113.713C51.1641 114.63 52.644 115.29 54.2072 115.661C55.7651 116.044 57.3545 116.286 58.956 116.383C60.5669 116.511 62.1873 116.444 63.782 116.183C64.2255 116.129 64.6402 115.935 64.9665 115.63C65.2928 115.325 65.5139 114.924 65.598 114.485C65.6525 113.518 65.0396 112.833 64.5902 112.215C63.605 110.944 62.4564 109.809 61.8662 108.379C61.7128 108.027 61.6015 107.658 61.5347 107.28C61.4399 106.935 61.4623 106.568 61.5983 106.236C61.6834 106.092 61.7998 105.969 61.9389 105.876C62.078 105.784 62.2363 105.724 62.4019 105.7C62.4755 105.685 62.5518 105.688 62.6239 105.71C62.696 105.731 62.7617 105.77 62.815 105.823L63.2917 106.186C63.9273 106.672 64.5629 107.162 65.2439 107.594C65.9249 108.025 66.6649 108.361 67.3686 108.724C68.7805 109.441 70.078 110.363 71.2186 111.462Z" fill="#F0997A"/>
<path d="M33.623 167.921V177.673L95.5078 213.439V203.687L33.623 167.921Z" fill="#37474F"/>
<path d="M95.5078 203.687L203.474 141.348V151.1L95.5078 213.439V203.687Z" fill="#455A64"/>
<path d="M95.5078 199.996L31.1396 162.804L141.171 99.2717L205.535 136.468L95.5078 199.996Z" fill="#019B98"/>
<path opacity="0.8" d="M95.5078 199.996L31.1396 162.804L141.171 99.2717L205.535 136.468L95.5078 199.996Z" fill="white"/>
<path d="M31.1396 162.804V167.975L95.5078 205.167V199.996L31.1396 162.804Z" fill="#019B98"/>
<path opacity="0.5" d="M31.1396 162.804V167.975L95.5078 205.167V199.996L31.1396 162.804Z" fill="white"/>
<path d="M95.5078 205.167L205.539 141.639L205.535 136.468L95.5078 199.996V205.167Z" fill="#019B98"/>
<path opacity="0.65" d="M95.5078 199.996L205.535 136.468L205.539 141.639L95.5078 205.167V199.996Z" fill="white"/>
<path d="M28.1478 158.954C26.6224 157.774 25.0652 156.639 23.5307 155.468C22.8406 154.935 22.1475 154.408 21.4513 153.888C21.07 153.606 20.6886 153.32 20.2982 153.048C20.1162 152.887 19.8957 152.776 19.658 152.726C19.5491 152.726 19.2903 152.757 19.2313 152.871L19.1768 152.971C19.1364 153.041 19.1175 153.121 19.1223 153.202C19.1272 153.283 19.1556 153.36 19.204 153.425C19.8608 154.084 20.5682 154.691 21.3197 155.241C21.9644 155.758 22.6181 156.258 23.2673 156.762C24.6066 157.792 25.9323 158.846 27.2989 159.84C27.3827 159.912 27.4844 159.961 27.5934 159.981C27.7025 160.001 27.8149 159.992 27.9191 159.954C28.0233 159.916 28.1154 159.851 28.186 159.765C28.2565 159.68 28.3029 159.577 28.3204 159.467C28.3393 159.374 28.3333 159.278 28.303 159.188C28.2727 159.098 28.2192 159.017 28.1478 158.954Z" fill="#E0E0E0"/>
<path d="M26.9583 161.474C25.0969 160.97 23.2218 160.512 21.3604 160.017C20.5205 159.794 19.6761 159.563 18.8317 159.354C18.3777 159.236 17.9237 159.122 17.447 159.018C17.2185 158.937 16.9724 158.918 16.7342 158.964C16.6298 159 16.4073 159.131 16.3937 159.263V159.377C16.3839 159.457 16.3976 159.538 16.4331 159.611C16.4685 159.683 16.5242 159.744 16.5934 159.785C17.452 160.14 18.337 160.427 19.2403 160.643C20.0302 160.875 20.8247 161.097 21.6192 161.306C23.2536 161.76 24.8789 162.214 26.5224 162.609C26.6276 162.644 26.74 162.65 26.8482 162.626C26.9564 162.603 27.0563 162.551 27.1377 162.476C27.2192 162.401 27.2791 162.306 27.3114 162.2C27.3437 162.094 27.3472 161.981 27.3215 161.874C27.3026 161.78 27.2589 161.694 27.195 161.624C27.131 161.553 27.0492 161.502 26.9583 161.474Z" fill="#E0E0E0"/>
<path d="M25.9867 163.953C24.1707 164.548 22.332 165.188 20.5024 165.769C19.6761 166.041 18.8453 166.314 18.0236 166.595C17.5696 166.75 17.1156 166.904 16.6616 167.076C16.4262 167.132 16.2099 167.25 16.035 167.417C15.9669 167.508 15.8534 167.739 15.9125 167.871L15.9669 167.975C16.0023 168.048 16.0581 168.108 16.1275 168.15C16.1969 168.191 16.2768 168.211 16.3574 168.207C17.2687 168.033 18.1657 167.79 19.0405 167.481C19.8305 167.24 20.6114 166.986 21.3968 166.731C23.0039 166.209 24.6202 165.71 26.2137 165.142C26.3208 165.114 26.4184 165.058 26.4964 164.979C26.5743 164.9 26.6299 164.802 26.6572 164.694C26.6845 164.587 26.6826 164.474 26.6517 164.368C26.6209 164.262 26.5621 164.165 26.4816 164.089C26.4171 164.027 26.338 163.982 26.2515 163.958C26.1651 163.934 26.074 163.932 25.9867 163.953Z" fill="#E0E0E0"/>
<path d="M209.434 139.378C211.25 139.737 213.066 140.046 214.882 140.391C215.704 140.545 216.521 140.704 217.339 140.845C217.793 140.926 218.247 141.003 218.701 141.072C218.925 141.133 219.162 141.133 219.386 141.072C219.482 141.031 219.686 140.89 219.69 140.763V140.658C219.696 140.581 219.678 140.504 219.639 140.437C219.6 140.37 219.542 140.316 219.472 140.282C218.629 140.002 217.765 139.788 216.889 139.641C216.122 139.473 215.346 139.324 214.574 139.187C212.989 138.874 211.396 138.543 209.811 138.279C209.708 138.254 209.6 138.256 209.498 138.286C209.396 138.316 209.304 138.372 209.231 138.449C209.158 138.526 209.107 138.621 209.083 138.725C209.059 138.828 209.063 138.936 209.094 139.038C209.119 139.118 209.163 139.191 209.222 139.25C209.282 139.309 209.354 139.353 209.434 139.378Z" fill="#E0E0E0"/>
<path d="M209.38 136.7C211.196 136.336 212.984 135.923 214.791 135.551C215.609 135.383 216.421 135.215 217.234 135.038C217.688 134.943 218.142 134.843 218.564 134.729C218.794 134.703 219.013 134.613 219.195 134.47C219.272 134.398 219.409 134.189 219.363 134.071L219.322 133.971C219.296 133.898 219.25 133.834 219.189 133.786C219.128 133.739 219.054 133.71 218.977 133.703C218.092 133.768 217.213 133.902 216.349 134.103C215.572 134.243 214.8 134.402 214.029 134.557C212.444 134.874 210.851 135.174 209.28 135.537C209.175 135.552 209.075 135.595 208.992 135.661C208.909 135.727 208.845 135.814 208.807 135.913C208.769 136.013 208.759 136.12 208.776 136.225C208.794 136.329 208.839 136.428 208.907 136.509C208.963 136.579 209.035 136.633 209.118 136.667C209.201 136.7 209.291 136.712 209.38 136.7Z" fill="#E0E0E0"/>
<path d="M209.148 134.166C210.465 132.872 211.745 131.547 213.057 130.248C213.647 129.658 214.238 129.072 214.819 128.482C215.141 128.155 215.459 127.833 215.768 127.497C215.943 127.346 216.076 127.152 216.154 126.934C216.176 126.829 216.176 126.584 216.072 126.507L215.986 126.444C215.923 126.391 215.845 126.36 215.764 126.355C215.682 126.349 215.601 126.369 215.532 126.412C214.826 126.951 214.163 127.543 213.548 128.182C212.976 128.723 212.417 129.277 211.854 129.83C210.701 130.961 209.534 132.1 208.413 133.249C208.333 133.319 208.273 133.409 208.24 133.51C208.207 133.611 208.201 133.719 208.224 133.823C208.247 133.927 208.297 134.023 208.369 134.101C208.442 134.179 208.533 134.236 208.635 134.266C208.722 134.297 208.815 134.305 208.906 134.287C208.996 134.269 209.08 134.228 209.148 134.166Z" fill="#E0E0E0"/>
<path d="M127.179 132.754L162.405 153.094L187.566 138.566L152.34 118.226L127.179 132.754Z" fill="#FAFAFA"/>
<path opacity="0.3" d="M188.642 135.923L185.818 137.553L152.34 118.226L130.008 131.12L128.255 130.112L153.421 115.584L188.642 135.923Z" fill="#019B98"/>
<path d="M185.818 137.553L163.481 150.451L130.008 131.12L152.34 118.226L185.818 137.553Z" fill="#E0E0E0"/>
<path d="M128.764 128.559L163.99 148.898L189.15 134.37L153.924 114.031L128.764 128.559Z" fill="#FAFAFA"/>
<path opacity="0.1" d="M88.621 186.072L147.814 151.895L109.337 129.676L50.1445 163.858L88.621 186.072Z" fill="black"/>
<path d="M88.571 183.33L144.327 151.137L108.706 130.57L52.9502 162.763L88.571 183.33Z" fill="#019B98"/>
<path opacity="0.15" d="M88.571 183.33L144.327 151.137L108.706 130.57L52.9502 162.763L88.571 183.33Z" fill="black"/>
<path d="M115.711 166.804V165.81C115.711 164.584 117.9 161.079 120.633 159.499L142.783 146.715V151.182L115.711 166.804Z" fill="#F5F5F5"/>
<path d="M142.774 146.715L120.623 159.499C117.899 161.075 115.688 164.584 115.702 165.81V166.804L81.6294 147.132V146.133C81.6294 144.908 83.8131 141.403 86.5508 139.823L108.688 127.043L142.774 146.715Z" fill="#FAFAFA"/>
<path d="M142.774 146.715L120.623 159.499C117.899 161.075 115.688 164.584 115.702 165.81V166.804L81.6294 147.132V146.133C81.6294 144.908 83.8131 141.403 86.5508 139.823L108.701 127.034L142.774 146.715Z" fill="#FAFAFA"/>
<path d="M115.702 165.883L113.582 164.652L110.776 163.036C112.343 162.854 113.45 163.09 114.218 163.531C114.643 163.767 115.001 164.106 115.261 164.517C115.52 164.928 115.672 165.398 115.702 165.883Z" fill="#F0F0F0"/>
<path d="M115.702 165.883L113.582 164.652L110.776 163.036C112.343 162.854 113.45 163.09 114.218 163.531C114.643 163.767 115.001 164.106 115.261 164.517C115.52 164.928 115.672 165.398 115.702 165.883Z" fill="#E0E0E0"/>
<path d="M88.5801 184.256L88.571 183.33L52.9502 162.763V163.685L88.5801 184.256Z" fill="#019B98"/>
<path opacity="0.3" d="M88.5801 184.256L88.571 183.33L52.9502 162.763V163.685L88.5801 184.256Z" fill="black"/>
<path d="M88.5804 184.256L144.336 152.067L144.327 151.136L88.5713 183.33L88.5804 184.256Z" fill="#019B98"/>
<path d="M115.702 165.882C115.702 164.652 113.432 163.612 110.708 165.201L88.5664 177.886V182.476L115.711 166.804C115.711 166.804 115.711 167.108 115.702 165.882Z" fill="#F5F5F5"/>
<path d="M88.5664 182.476V177.886L54.4937 158.214V162.804L88.5664 182.476Z" fill="#EBEBEB"/>
<path d="M110.713 165.201L109.719 165.769L88.5668 177.886L58.4711 160.512L54.4805 158.214L76.6266 145.53C78.6333 144.376 79.7547 144.467 80.5446 144.917L115.085 164.856C113.85 164.153 112.397 164.303 110.713 165.201Z" fill="#FAFAFA"/>
<path d="M87.0186 174.427L105.873 163.549L106.867 162.981L107.594 163.399L106.6 163.967L87.745 174.849L87.0186 174.427Z" fill="#E0E0E0"/>
<path d="M85.2798 173.423L104.134 162.546L105.124 161.978L105.851 162.396L104.861 162.963L86.0016 173.841L85.2798 173.423Z" fill="#E0E0E0"/>
<path d="M83.5361 172.42L102.391 161.538L103.385 160.97L104.111 161.392L103.117 161.96L84.2625 172.838L83.5361 172.42Z" fill="#E0E0E0"/>
<path d="M81.793 171.412L100.652 160.534L101.642 159.967L102.368 160.384L101.379 160.952L82.5194 171.834L81.793 171.412Z" fill="#E0E0E0"/>
<path d="M80.0542 170.409L98.9088 159.526L99.9031 158.959L100.629 159.381L99.6352 159.949L80.7806 170.827L80.0542 170.409Z" fill="#E0E0E0"/>
<path d="M78.3105 169.401L97.1697 158.523L98.1594 157.956L98.8858 158.373L97.8961 158.941L79.0369 169.823L78.3105 169.401Z" fill="#E0E0E0"/>
<path d="M76.5718 168.398L95.4264 157.515L96.4207 156.948L97.1425 157.37L96.1528 157.937L77.2982 168.815L76.5718 168.398Z" fill="#E0E0E0"/>
<path d="M74.8286 167.39L93.6878 156.512L94.6775 155.944L95.4039 156.362L94.4096 156.93L75.555 167.812L74.8286 167.39Z" fill="#E0E0E0"/>
<path d="M73.0898 166.386L91.9445 155.509L92.9387 154.941L93.6651 155.359L92.6709 155.926L73.8162 166.804L73.0898 166.386Z" fill="#E0E0E0"/>
<path d="M71.3462 165.383L90.2054 154.501L91.1951 153.933L91.9215 154.355L90.9272 154.918L72.0726 165.801L71.3462 165.383Z" fill="#E0E0E0"/>
<path d="M69.6074 164.375L88.462 153.497L89.4563 152.93L90.1782 153.348L89.1884 153.915L70.3338 164.793L69.6074 164.375Z" fill="#E0E0E0"/>
<path d="M67.8643 163.372L86.7189 152.489L87.7131 151.922L88.4395 152.344L87.4453 152.912L68.5907 163.789L67.8643 163.372Z" fill="#E0E0E0"/>
<path d="M66.1255 162.364L84.9801 151.486L85.9744 150.919L86.6962 151.336L85.7065 151.904L66.8474 162.786L66.1255 162.364Z" fill="#E0E0E0"/>
<path d="M64.3818 161.361L83.2365 150.478L84.2307 149.911L84.9571 150.333L83.9629 150.9L65.1082 161.778L64.3818 161.361Z" fill="#E0E0E0"/>
<path d="M62.6431 160.353L81.4977 149.475L82.4874 148.907L83.2138 149.325L82.2241 149.893L63.3649 160.775L62.6431 160.353Z" fill="#E0E0E0"/>
<path d="M60.8999 159.349L79.7545 148.467L80.7488 147.904L81.4752 148.322L80.4809 148.889L61.6263 159.767L60.8999 159.349Z" fill="#E0E0E0"/>
<path d="M59.1611 158.342L78.0158 147.464L79.0055 146.896L79.7319 147.318L78.7422 147.881L59.883 158.764L59.1611 158.342Z" fill="#E0E0E0"/>
<path opacity="0.1" d="M110.922 164.012C110.513 164.053 109.646 164.33 109.169 164.439C107.153 164.893 103.603 166.514 100.203 168.216C95.6626 170.486 91.3769 172.92 91.3769 172.92L60.2007 154.946L76.64 145.53C77.269 145.146 77.9535 144.861 78.6694 144.685C79.1675 144.767 79.6481 144.933 80.0904 145.176L80.3083 144.794C80.3942 144.83 80.4776 144.871 80.558 144.917L115.098 164.857C113.16 163.74 112.256 163.894 110.922 164.012Z" fill="black"/>
<path d="M88.5439 178.885L91.9262 177.173L88.5666 179.216L85.1934 177.269L88.5439 178.885Z" fill="#E6E6E6"/>
<path d="M88.5709 181.182L94.7681 177.605L88.5709 180.942L81.6021 177.16L88.5709 181.182Z" fill="#E6E6E6"/>
<path d="M54.4937 159.227L59.7056 162.368L54.4937 159.708V159.227Z" fill="#E6E6E6"/>
<path d="M54.5027 161.02L62.2389 165.751L54.4937 161.447L54.5027 161.02Z" fill="#E6E6E6"/>
<path d="M110.776 163.036C110.329 163.086 109.885 163.162 109.446 163.263C107.435 163.717 103.884 165.338 100.479 167.04C95.9393 169.31 91.6536 171.744 91.6536 171.744L57.5718 152.09C57.5718 152.09 70.5426 144.622 75.6319 143.636C78.0199 143.182 79.4864 143.496 80.3762 144.004L114.222 163.526C113.459 163.09 112.351 162.854 110.776 163.036Z" fill="#F5F5F5"/>
<path d="M110.359 161.297C109.591 160.843 108.479 160.621 106.917 160.798C106.47 160.849 106.026 160.927 105.587 161.029C103.671 161.569 101.808 162.284 100.021 163.163C98.9133 163.676 97.7511 164.234 96.6206 164.806C93.8966 166.168 91.2453 167.599 89.5791 168.516L90.3509 168.97C92.0216 168.062 94.6594 166.627 97.397 165.256C98.532 164.688 99.667 164.125 100.793 163.617C102.58 162.737 104.443 162.022 106.359 161.479C106.798 161.378 107.242 161.302 107.689 161.252C109.255 161.07 110.363 161.306 111.13 161.751L110.359 161.297Z" fill="#E0E0E0"/>
<path d="M108.611 160.289C107.848 159.835 106.736 159.613 105.169 159.794C104.723 159.845 104.281 159.92 103.844 160.021C101.926 160.561 100.063 161.277 98.2776 162.16C97.1698 162.668 96.0076 163.227 94.8771 163.799C92.1531 165.161 89.5018 166.591 87.8311 167.512L88.6074 167.966C90.2781 167.058 92.9158 165.624 95.6489 164.257C96.7885 163.685 97.9189 163.127 99.0494 162.614C100.836 161.734 102.699 161.018 104.615 160.475C105.054 160.374 105.498 160.299 105.946 160.248C107.512 160.071 108.62 160.303 109.387 160.748L108.611 160.289Z" fill="#E0E0E0"/>
<path d="M106.867 159.286C106.1 158.832 104.992 158.605 103.426 158.787C102.979 158.837 102.535 158.913 102.096 159.014C100.18 159.56 98.3179 160.282 96.5344 161.17C95.4221 161.679 94.2644 162.242 93.134 162.809C90.41 164.171 87.7586 165.606 86.0879 166.523L86.8642 166.977C88.5304 166.069 91.1727 164.634 93.9058 163.268C95.0453 162.696 96.1758 162.137 97.3062 161.624C99.0931 160.744 100.956 160.029 102.872 159.486C103.311 159.387 103.755 159.311 104.202 159.259C105.769 159.082 106.877 159.318 107.644 159.758L106.867 159.286Z" fill="#E0E0E0"/>
<path d="M105.124 158.278C104.357 157.824 103.249 157.597 101.682 157.779C101.235 157.829 100.791 157.905 100.352 158.006C98.436 158.548 96.5731 159.264 94.7862 160.144C93.6785 160.657 92.5162 161.215 91.3858 161.783C88.6618 163.145 86.015 164.579 84.3442 165.497L85.1206 165.951C86.7868 165.043 89.4245 163.612 92.1621 162.241C93.3017 161.669 94.4548 161.111 95.5626 160.598C97.3491 159.719 99.2122 159.004 101.129 158.464C101.567 158.361 102.011 158.285 102.459 158.237C104.021 158.055 105.133 158.292 105.9 158.732L105.124 158.278Z" fill="#E0E0E0"/>
<path d="M103.381 157.27C102.613 156.816 101.506 156.594 99.9393 156.771C99.4923 156.823 99.0483 156.899 98.6091 156.998C96.6929 157.541 94.8299 158.256 93.0431 159.136C91.9353 159.649 90.7731 160.208 89.6426 160.78C86.9186 162.142 84.2673 163.572 82.6011 164.489L83.3729 164.943C85.0436 164.035 87.6813 162.6 90.419 161.229C91.554 160.657 92.7117 160.099 93.8194 159.59C95.605 158.708 97.4683 157.992 99.3855 157.452C99.8226 157.351 100.265 157.275 100.711 157.225C102.277 157.043 103.39 157.279 104.152 157.72L103.381 157.27Z" fill="#E0E0E0"/>
<path d="M101.637 156.262C100.87 155.808 99.7574 155.586 98.1957 155.763C97.7482 155.814 97.3041 155.892 96.8655 155.994C94.949 156.535 93.0859 157.249 91.2994 158.128C90.1917 158.641 89.0294 159.2 87.899 159.772C85.175 161.134 82.5236 162.564 80.8574 163.481L81.6292 163.935C83.2999 163.027 85.9377 161.592 88.6753 160.221C89.8103 159.654 90.9453 159.091 92.0758 158.582C93.8599 157.7 95.7216 156.984 97.6373 156.444C98.076 156.343 98.5201 156.267 98.9675 156.217C100.534 156.035 101.642 156.271 102.409 156.716L101.637 156.262Z" fill="#E0E0E0"/>
<path d="M99.8802 155.268C99.1174 154.814 98.0051 154.591 96.4388 154.773C95.993 154.823 95.5504 154.899 95.1132 155C93.1957 155.539 91.3324 156.255 89.5471 157.138C88.4394 157.647 87.2771 158.205 86.1467 158.777C83.4227 160.139 80.7713 161.569 79.1006 162.487L79.8769 162.941C81.5476 162.033 84.1854 160.598 86.9185 159.227C88.058 158.659 89.2112 158.101 90.3189 157.588C92.1058 156.708 93.9687 155.992 95.885 155.45C96.3237 155.349 96.7678 155.273 97.2152 155.222C98.7815 155.045 99.8893 155.277 100.657 155.722L99.8802 155.268Z" fill="#E0E0E0"/>
<path d="M98.1458 154.251C97.3785 153.797 96.2708 153.57 94.7045 153.752C94.2571 153.802 93.813 153.878 93.3742 153.979C91.4586 154.519 89.5969 155.235 87.8127 156.117C86.7004 156.625 85.5427 157.188 84.4123 157.756C81.6883 159.118 79.0369 160.553 77.3662 161.47L78.1425 161.924C79.8087 161.016 82.451 159.581 85.1841 158.214C86.3236 157.642 87.4768 157.084 88.5845 156.571C90.3714 155.691 92.2344 154.976 94.1506 154.433C94.5898 154.334 95.0338 154.258 95.4808 154.206C97.0471 154.029 98.1549 154.265 98.9221 154.705L98.1458 154.251Z" fill="#E0E0E0"/>
<path d="M93.7376 153.189C93.2902 153.24 92.846 153.318 92.4074 153.42C90.3917 153.874 86.8414 155.49 83.4409 157.197C80.7169 158.559 78.0656 159.99 76.3994 160.907L75.623 160.453C77.2938 159.545 79.9315 158.11 82.6646 156.739C86.065 155.036 89.6199 153.416 91.6311 152.962C92.0698 152.861 92.5139 152.785 92.9613 152.735C94.5276 152.553 95.6354 152.789 96.4026 153.234L97.1744 153.688C96.4117 153.248 95.2994 152.998 93.7376 153.189Z" fill="#E0E0E0"/>
<path d="M91.9899 152.185C91.5441 152.236 91.1015 152.311 90.6643 152.412C88.6485 152.866 85.0982 154.487 81.6978 156.189C78.9738 157.551 76.3224 158.982 74.6517 159.899L73.8799 159.445C75.5461 158.537 78.1883 157.102 80.9214 155.731C84.3219 154.028 87.8767 152.408 89.8879 151.954C90.3267 151.853 90.7708 151.777 91.2181 151.727C92.7844 151.55 93.8922 151.786 94.6595 152.226L95.4313 152.68C94.6685 152.24 93.5562 152.004 91.9899 152.185Z" fill="#E0E0E0"/>
<path d="M90.2463 151.182C89.7989 151.232 89.3548 151.308 88.9161 151.409C86.9049 151.863 83.3546 153.484 79.9541 155.186C77.2301 156.548 74.5787 157.983 72.908 158.9L72.1362 158.446C73.8024 157.538 76.4401 156.103 79.1778 154.737C82.5782 153.03 86.1285 151.409 88.1443 150.955C88.5834 150.856 89.0274 150.78 89.4745 150.728C91.0363 150.551 92.1486 150.787 92.9158 151.227L93.6876 151.681C92.9204 151.232 91.8126 150.996 90.2463 151.182Z" fill="#E0E0E0"/>
<path d="M88.5028 150.169C88.0554 150.22 87.6113 150.296 87.1726 150.396C85.1613 150.85 81.6065 152.471 78.2061 154.174C75.4821 155.536 72.8352 156.97 71.1645 157.887L70.3882 157.433C72.0589 156.525 74.6966 155.095 77.4343 153.724C80.8347 152.022 84.385 150.396 86.4008 149.947C86.8379 149.845 87.2805 149.767 87.7264 149.715C89.2927 149.538 90.405 149.774 91.1678 150.215L91.9441 150.669C91.1768 150.224 90.0691 149.988 88.5028 150.169Z" fill="#E0E0E0"/>
<path d="M86.7596 149.162C86.3123 149.212 85.8681 149.288 85.4294 149.389C83.4136 149.843 79.8634 151.463 76.4629 153.17C73.7389 154.532 71.0875 155.963 69.4214 156.88L68.645 156.426C70.3157 155.518 72.9535 154.083 75.6911 152.712C79.0916 151.009 82.6418 149.389 84.6531 148.935C85.0918 148.834 85.5359 148.758 85.9833 148.708C87.5496 148.526 88.6573 148.762 89.4246 149.202L90.2009 149.656C89.4382 149.221 88.3259 148.985 86.7596 149.162Z" fill="#E0E0E0"/>
<path d="M85.0165 148.154C84.5694 148.206 84.1253 148.282 83.6862 148.381C81.6705 148.835 78.1202 150.456 74.7197 152.163C71.9957 153.525 69.3444 154.955 67.6782 155.872L66.9019 155.418C68.5726 154.51 71.2103 153.075 73.9434 151.704C77.3439 150.002 80.8987 148.381 82.9099 147.927C83.3486 147.826 83.7928 147.75 84.2401 147.7C85.8064 147.518 86.9142 147.754 87.6814 148.199L88.4532 148.653C87.6905 148.213 86.5782 147.977 85.0165 148.154Z" fill="#E0E0E0"/>
<path d="M83.2683 147.146C82.8223 147.198 82.3797 147.275 81.9426 147.377C79.9268 147.831 76.3765 149.452 72.9761 151.155C70.2521 152.517 67.6007 153.947 65.93 154.864L65.1582 154.41C66.8244 153.502 69.4667 152.067 72.1997 150.696C75.6002 148.994 79.1505 147.373 81.1662 146.919C81.605 146.818 82.0491 146.742 82.4965 146.692C84.0628 146.51 85.1705 146.746 85.9378 147.191L86.7096 147.645C85.9469 147.205 84.8346 146.969 83.2683 147.146Z" fill="#E0E0E0"/>
<path d="M81.5251 146.143C81.0777 146.193 80.6336 146.269 80.1949 146.37C78.1837 146.824 74.6334 148.444 71.2329 150.147C68.5089 151.509 65.8576 152.939 64.1868 153.861L63.415 153.407C65.0812 152.499 67.719 151.064 70.4566 149.697C73.857 147.99 77.4073 146.37 79.4231 145.916C79.8617 145.814 80.3059 145.738 80.7533 145.689C82.3151 145.511 83.4274 145.748 84.1946 146.188L84.9664 146.642C84.1992 146.188 83.0823 145.961 81.5251 146.143Z" fill="#E0E0E0"/>
<path d="M79.7816 145.135C79.3342 145.185 78.8901 145.261 78.4514 145.362C76.4402 145.816 72.8853 147.437 69.4849 149.139C66.7609 150.501 64.114 151.936 62.4433 152.853L61.667 152.399C63.3377 151.491 65.9755 150.056 68.7131 148.69C72.1135 146.983 75.6638 145.362 77.6796 144.908C78.1172 144.809 78.5597 144.733 79.0053 144.681C80.5716 144.504 81.6839 144.74 82.4466 145.18L83.2229 145.634C82.4557 145.189 81.3479 144.953 79.7816 145.135Z" fill="#E0E0E0"/>
<path d="M117.436 157.661C116.394 158.291 115.463 159.088 114.681 160.021L113.968 159.608C114.754 158.678 115.686 157.882 116.728 157.252L136.582 145.816L137.29 146.224L117.436 157.661Z" fill="#E0E0E0"/>
<path d="M117.436 157.661C116.394 158.291 115.463 159.088 114.681 160.021L113.968 159.608C114.754 158.678 115.686 157.882 116.728 157.252L136.582 145.816L137.29 146.224L117.436 157.661Z" fill="#E0E0E0"/>
<path d="M115.693 156.653C114.652 157.284 113.721 158.082 112.937 159.013L112.229 158.605C113.012 157.672 113.943 156.874 114.985 156.244L134.838 144.826L135.546 145.235L115.693 156.653Z" fill="#E0E0E0"/>
<path d="M113.954 155.649C112.911 156.278 111.979 157.074 111.194 158.006L110.486 157.597C111.27 156.665 112.201 155.868 113.242 155.236L133.095 143.804L133.803 144.213L113.954 155.649Z" fill="#E0E0E0"/>
<path d="M112.211 154.641C111.167 155.271 110.234 156.068 109.45 157.002L108.742 156.594C109.526 155.66 110.458 154.862 111.503 154.233L131.351 142.797L132.06 143.205L112.211 154.641Z" fill="#E0E0E0"/>
<path d="M110.468 153.638C109.426 154.267 108.495 155.063 107.712 155.994L106.999 155.586C107.785 154.654 108.717 153.857 109.759 153.225L129.613 141.793L130.321 142.202L110.468 153.638Z" fill="#E0E0E0"/>
<path d="M108.724 152.63C107.682 153.261 106.751 154.058 105.968 154.991L105.26 154.582C106.043 153.65 106.974 152.852 108.016 152.222L127.869 140.785L128.578 141.194L108.724 152.63Z" fill="#E0E0E0"/>
<path d="M106.985 151.636C105.942 152.266 105.009 153.064 104.225 153.997L103.517 153.588C104.301 152.656 105.231 151.859 106.272 151.227L126.126 139.791L126.834 140.204L106.985 151.636Z" fill="#E0E0E0"/>
<path d="M105.242 150.619C104.198 151.248 103.265 152.046 102.482 152.98L101.773 152.571C102.557 151.637 103.49 150.839 104.534 150.21L124.396 138.774L125.104 139.183L105.242 150.619Z" fill="#E0E0E0"/>
<path d="M103.512 149.611C102.47 150.242 101.539 151.039 100.756 151.972L100.043 151.563C100.828 150.631 101.761 149.833 102.804 149.203L122.653 137.766L123.365 138.175L103.512 149.611Z" fill="#E0E0E0"/>
<path d="M101.755 148.608C100.713 149.238 99.782 150.036 98.9993 150.969L98.291 150.555C99.0739 149.624 100.005 148.828 101.047 148.199L120.9 136.763L121.608 137.172L101.755 148.608Z" fill="#E0E0E0"/>
<path d="M100.016 147.6C98.9732 148.23 98.0407 149.028 97.2561 149.961L96.5479 149.552C97.3306 148.619 98.2617 147.821 99.3036 147.191L119.157 135.746L119.865 136.154L100.016 147.6Z" fill="#E0E0E0"/>
<path d="M98.2732 146.597C97.2292 147.224 96.2964 148.02 95.5129 148.953L94.8047 148.544C95.5893 147.611 96.5218 146.814 97.565 146.183L117.414 134.752L118.122 135.16L98.2732 146.597Z" fill="#E0E0E0"/>
<path d="M96.5298 145.589C95.4869 146.218 94.5557 147.016 93.774 147.95L93.0703 147.55C93.8537 146.616 94.7864 145.818 95.8306 145.189L115.68 133.753L116.392 134.162L96.5298 145.589Z" fill="#E0E0E0"/>
<path d="M94.7863 144.581C93.7453 145.213 92.8145 146.01 92.0305 146.942L91.3223 146.533C92.1063 145.601 93.0371 144.804 94.078 144.172L113.954 132.74L114.662 133.149L94.7863 144.581Z" fill="#E0E0E0"/>
<path d="M93.0701 143.578C92.0259 144.207 91.0932 145.004 90.3098 145.938L89.6016 145.53C90.3843 144.597 91.3154 143.799 92.3573 143.169L112.211 131.733L112.919 132.141L93.0701 143.578Z" fill="#E0E0E0"/>
<path d="M91.304 142.556C90.2608 143.186 89.3283 143.984 88.5437 144.917L87.8354 144.508C88.62 143.575 89.5526 142.778 90.5958 142.147L110.445 130.711L111.153 131.124L91.304 142.556Z" fill="#E0E0E0"/>
<path d="M89.5608 141.566C88.5175 142.197 87.5849 142.994 86.8005 143.927L86.0923 143.514C86.877 142.583 87.8096 141.786 88.8526 141.158L108.701 129.721L109.414 130.13L89.5608 141.566Z" fill="#E0E0E0"/>
<path d="M138.125 150.619L142.769 148.167L142.774 147.786L138.125 150.619Z" fill="#E6E6E6"/>
<path d="M142.774 149.534L135.029 153.861L142.774 149.252V149.534Z" fill="#E6E6E6"/>
<path opacity="0.02" d="M62.8882 149.166C67.0695 146.955 72.6764 144.204 75.632 143.632C78.02 143.178 79.4864 143.491 80.3763 144L114.222 163.522C113.455 163.068 112.347 162.845 110.781 163.027C110.781 163.027 94.028 152.807 83.2092 149.316C76.6005 147.25 69.5266 147.198 62.8882 149.166Z" fill="black"/>
<path d="M155.223 90.8954C153.671 90.8899 152.139 90.5519 150.73 89.9042C149.32 89.2565 148.065 88.3143 147.051 87.1408C145.214 88.1472 143.152 88.6735 141.058 88.6708C135.156 88.6708 129.871 84.3941 128.16 78.2288C123.465 76.9349 120.201 72.3768 120.201 67.0922C120.201 60.9042 124.773 55.7921 130.425 55.6015C132.359 49.0185 137.889 44.6147 144.245 44.6147C147.431 44.6222 150.514 45.7468 152.957 47.7927C154.004 46.4321 155.36 45.3406 156.913 44.6084C158.466 43.8762 160.171 43.5243 161.887 43.582C163.603 43.6397 165.28 44.1052 166.78 44.9401C168.28 45.7749 169.56 46.9551 170.513 48.3829C171.867 47.894 173.296 47.6436 174.736 47.6428C180.379 47.6428 185.45 51.5109 187.393 57.2767C192.151 58.4617 195.592 63.1515 195.592 68.4951C195.592 74.3971 191.402 79.3911 186.018 79.9404C183.825 85.4701 178.858 89.0204 173.306 89.0204C170.052 89.0022 166.921 87.7758 164.521 85.5791C163.543 87.1753 162.178 88.4992 160.553 89.4284C158.928 90.3576 157.094 90.8622 155.223 90.8954ZM147.119 86.5552C147.156 86.5554 147.193 86.5636 147.226 86.5793C147.26 86.595 147.29 86.6177 147.314 86.646C148.281 87.8067 149.489 88.7422 150.856 89.3868C152.222 90.0315 153.712 90.3697 155.223 90.3779C158.855 90.3779 162.251 88.3939 164.275 85.0661C164.296 85.0339 164.323 85.0066 164.355 84.9862C164.388 84.9658 164.424 84.9528 164.462 84.948C164.5 84.942 164.539 84.945 164.576 84.9568C164.613 84.9686 164.647 84.9889 164.675 85.0161C167.008 87.2502 170.107 88.5074 173.337 88.5301C178.708 88.5301 183.525 85.0297 185.595 79.6135C185.614 79.5684 185.644 79.5292 185.683 79.5003C185.723 79.4714 185.769 79.4541 185.818 79.4501C191.012 78.9961 195.084 74.2064 195.084 68.5041C195.084 63.3467 191.742 58.8249 187.139 57.7534C187.095 57.7452 187.055 57.7252 187.022 57.6956C186.989 57.666 186.965 57.6278 186.953 57.5854C185.114 51.9513 180.206 48.1695 174.74 48.1695C173.296 48.1685 171.863 48.4316 170.513 48.9458C170.459 48.9654 170.4 48.9666 170.345 48.9494C170.29 48.9322 170.243 48.8974 170.209 48.8505C169.305 47.4393 168.071 46.2697 166.613 45.443C165.156 44.6162 163.519 44.1573 161.843 44.1059C160.168 44.0544 158.506 44.4121 157 45.1479C155.495 45.8836 154.191 46.9753 153.202 48.3284C153.182 48.3567 153.155 48.3803 153.125 48.3975C153.094 48.4148 153.06 48.4252 153.025 48.4283C152.991 48.4324 152.955 48.4293 152.922 48.4192C152.888 48.409 152.857 48.392 152.83 48.3692C150.45 46.2987 147.404 45.1559 144.25 45.1504C138.071 45.1504 132.695 49.4861 130.875 55.942C130.859 55.9951 130.827 56.0419 130.783 56.0754C130.739 56.1089 130.685 56.1274 130.63 56.1281C125.182 56.2098 120.723 61.1221 120.723 67.1104C120.723 72.2179 123.901 76.608 128.441 77.7884C128.486 77.7991 128.527 77.8217 128.559 77.8536C128.592 77.8856 128.616 77.9258 128.627 77.97C130.235 83.9674 135.351 88.1578 141.067 88.1578C143.137 88.1543 145.171 87.613 146.969 86.587C147.014 86.5609 147.067 86.5498 147.119 86.5552Z" fill="#019B98"/>
<path d="M122.494 50.9795C121.974 50.9732 121.468 50.8155 121.037 50.5255C120.847 50.6091 120.651 50.6774 120.451 50.7298C119.681 50.927 118.871 50.8955 118.118 50.6391C117.366 50.3827 116.705 49.9125 116.216 49.2862C115.727 48.6599 115.431 47.9045 115.365 47.1126C115.299 46.3208 115.465 45.5268 115.843 44.8278C115.437 44.412 115.171 43.8803 115.082 43.3064C114.992 42.7326 115.084 42.1451 115.343 41.6255C115.603 41.1059 116.018 40.68 116.53 40.4069C117.043 40.1339 117.628 40.0272 118.204 40.1017C118.47 39.3046 118.934 38.5881 119.553 38.0196C120.172 37.451 120.925 37.049 121.742 36.8511C122.559 36.6533 123.412 36.6661 124.223 36.8885C125.033 37.1108 125.774 37.5353 126.376 38.1222C126.448 38.0926 126.522 38.0683 126.598 38.0496C126.922 37.964 127.259 37.9431 127.591 37.9881C127.923 38.0331 128.243 38.143 128.532 38.3117C128.821 38.4804 129.074 38.7045 129.277 38.9711C129.48 39.2377 129.628 39.5417 129.713 39.8656C129.819 40.2764 129.819 40.7078 129.713 41.1186C130.321 41.1811 130.89 41.4513 131.324 41.8839C131.757 42.3164 132.028 42.8849 132.091 43.4937C132.155 44.1026 132.006 44.7147 131.672 45.2272C131.337 45.7396 130.836 46.1213 130.253 46.3078C130.186 46.9254 129.98 47.5197 129.649 48.0455C129.318 48.5713 128.872 49.0147 128.344 49.3421C127.816 49.6695 127.221 49.8723 126.603 49.9349C125.985 49.9976 125.36 49.9185 124.778 49.7038C124.421 50.2927 123.85 50.7206 123.184 50.8978C122.959 50.9564 122.727 50.9839 122.494 50.9795ZM121.064 50.0034C121.118 50.004 121.17 50.0215 121.214 50.0533C121.469 50.2412 121.762 50.3708 122.073 50.4329C122.384 50.495 122.704 50.4882 123.012 50.4129C123.32 50.3375 123.608 50.1955 123.855 49.9969C124.102 49.7983 124.302 49.5479 124.442 49.2634C124.47 49.2062 124.519 49.1621 124.579 49.1402C124.639 49.1182 124.705 49.1201 124.764 49.1453C125.291 49.3749 125.865 49.4741 126.438 49.4345C127.011 49.3949 127.566 49.2177 128.056 48.9178C128.547 48.618 128.957 48.2044 129.253 47.7121C129.549 47.2198 129.723 46.6634 129.758 46.0899C129.76 46.0365 129.779 45.9851 129.813 45.9435C129.846 45.9018 129.892 45.872 129.944 45.8584L130.053 46.0945L129.989 45.8493C130.544 45.7012 131.017 45.3396 131.305 44.8436C131.594 44.3476 131.674 43.7575 131.529 43.2025C131.399 42.7362 131.12 42.3258 130.733 42.0351C130.346 41.7444 129.874 41.5898 129.39 41.5953C129.348 41.6009 129.306 41.5935 129.268 41.574C129.231 41.5545 129.201 41.5239 129.181 41.4864C129.158 41.4533 129.142 41.4149 129.137 41.3745C129.131 41.3342 129.136 41.2931 129.15 41.2548C129.311 40.8518 129.338 40.4077 129.227 39.9882C129.158 39.7282 129.038 39.4843 128.875 39.2706C128.711 39.0568 128.507 38.8774 128.275 38.7425C128.042 38.6075 127.785 38.5198 127.518 38.4843C127.252 38.4487 126.981 38.4661 126.721 38.5354C126.615 38.5642 126.512 38.6006 126.412 38.6443C126.365 38.6659 126.313 38.6723 126.262 38.6625C126.212 38.6527 126.166 38.6273 126.13 38.5898C125.587 38.0217 124.903 37.6072 124.148 37.3883C123.393 37.1693 122.593 37.1538 121.83 37.3432C121.067 37.5326 120.368 37.9201 119.803 38.4667C119.238 39.0133 118.827 39.6995 118.612 40.4558C118.595 40.5175 118.555 40.5703 118.5 40.6033C118.445 40.6362 118.38 40.6468 118.317 40.6328C117.82 40.524 117.302 40.5835 116.842 40.8018C116.383 41.02 116.009 41.3848 115.78 41.8387C115.551 42.2926 115.479 42.8098 115.576 43.309C115.673 43.8082 115.933 44.261 116.315 44.5963C116.36 44.6343 116.39 44.6874 116.399 44.7458C116.409 44.8042 116.396 44.864 116.365 44.9141C115.984 45.522 115.796 46.2304 115.823 46.9471C115.851 47.6639 116.093 48.3557 116.519 48.9327C116.945 49.5096 117.535 49.945 118.212 50.1821C118.889 50.4192 119.622 50.4471 120.315 50.2622C120.532 50.2047 120.743 50.1272 120.946 50.0306C120.982 50.0116 121.023 50.0023 121.064 50.0034Z" fill="#019B98"/>
<path d="M109.065 40.6557C108.619 40.6562 108.18 40.543 107.79 40.327C107.4 40.1109 107.072 39.799 106.835 39.4208C106.409 39.3031 106.025 39.067 105.727 38.7399C105.429 38.4129 105.23 38.0081 105.152 37.5726C105.075 37.137 105.122 36.6885 105.289 36.2788C105.456 35.8691 105.736 35.5151 106.095 35.2576C106.071 34.8425 106.158 34.4285 106.346 34.058C106.535 33.6874 106.819 33.3737 107.168 33.1491C107.518 32.9245 107.922 32.797 108.337 32.7798C108.752 32.7626 109.165 32.8563 109.532 33.0512C109.683 32.9068 109.85 32.7818 110.032 32.6789C110.448 32.451 110.924 32.3558 111.397 32.4062C111.869 32.4566 112.314 32.6501 112.673 32.9608C113.032 33.2715 113.288 33.6845 113.406 34.1445C113.523 34.6045 113.498 35.0895 113.332 35.5345C113.38 35.6014 113.424 35.6711 113.464 35.7434C113.659 36.0999 113.759 36.5012 113.752 36.9078C113.745 37.3144 113.633 37.7122 113.426 38.0621C113.219 38.4121 112.924 38.7021 112.571 38.9037C112.218 39.1053 111.818 39.2115 111.412 39.2119C111.195 39.6451 110.862 40.0095 110.45 40.2645C110.038 40.5194 109.563 40.6548 109.078 40.6557H109.065ZM108.434 33.2782C108.173 33.2807 107.916 33.3381 107.68 33.4468C107.443 33.5555 107.232 33.713 107.061 33.9089C106.889 34.1048 106.761 34.3347 106.685 34.5835C106.609 34.8324 106.586 35.0946 106.618 35.3529C106.625 35.4009 106.618 35.45 106.596 35.4938C106.575 35.5376 106.542 35.5739 106.499 35.5981C106.188 35.7899 105.941 36.0703 105.79 36.4032C105.639 36.7362 105.59 37.1066 105.651 37.4673C105.711 37.8279 105.878 38.1624 106.129 38.4278C106.381 38.6933 106.706 38.8778 107.062 38.9577C107.097 38.9652 107.129 38.98 107.158 39.0012C107.186 39.0223 107.209 39.0493 107.226 39.0803C107.501 39.5638 107.955 39.92 108.49 40.072C109.025 40.2241 109.598 40.1597 110.086 39.8929C110.497 39.6605 110.817 39.2956 110.994 38.8578C111.015 38.8091 111.051 38.7681 111.097 38.7405C111.142 38.7128 111.195 38.6999 111.248 38.7035C111.608 38.7305 111.967 38.6533 112.283 38.481C112.709 38.2445 113.024 37.8495 113.16 37.3819C113.296 36.9143 113.242 36.4119 113.01 35.984C112.958 35.8943 112.9 35.8079 112.837 35.7252C112.808 35.6894 112.79 35.6462 112.784 35.6004C112.779 35.5546 112.786 35.5082 112.806 35.4664C112.921 35.2089 112.975 34.9279 112.964 34.6457C112.952 34.3636 112.874 34.0881 112.737 33.8411C112.597 33.5813 112.395 33.3598 112.149 33.1957C111.903 33.0316 111.621 32.93 111.328 32.8996C111.034 32.8691 110.737 32.9109 110.463 33.0212C110.189 33.1314 109.946 33.3069 109.755 33.5324C109.716 33.5793 109.66 33.6099 109.6 33.6183C109.54 33.6267 109.478 33.6123 109.428 33.5778C109.131 33.3872 108.786 33.2834 108.434 33.2782Z" fill="#019B98"/>
<path d="M99.1355 38.8214H99.022C98.6721 38.7928 98.3469 38.6301 98.114 38.3674C97.9931 38.2258 97.9025 38.0609 97.8478 37.8828C97.7932 37.7048 97.7756 37.5174 97.7962 37.3323L97.7417 37.2733C97.6246 37.1366 97.5357 36.978 97.4803 36.8067C97.4248 36.6354 97.4039 36.4548 97.4187 36.2754C97.4334 36.096 97.4836 35.9213 97.5664 35.7613C97.6491 35.6014 97.7627 35.4595 97.9006 35.3438C98.0578 35.2088 98.2444 35.1124 98.4454 35.0623C98.5303 34.7936 98.6873 34.5533 98.8994 34.3677C99.1894 34.1214 99.5613 33.9931 99.9414 34.0083C100.322 34.0234 100.682 34.1809 100.952 34.4494C101.301 34.4781 101.627 34.6407 101.86 34.9034C102.071 35.1501 102.186 35.4641 102.186 35.7887C102.186 36.1134 102.071 36.4273 101.86 36.674C101.913 36.9168 101.899 37.1694 101.819 37.4047C101.739 37.64 101.596 37.8489 101.406 38.0088C101.243 38.1474 101.051 38.2459 100.843 38.2964C100.636 38.3469 100.419 38.3479 100.211 38.2993C100.154 38.374 100.088 38.4425 100.016 38.5036C99.7695 38.7103 99.4574 38.8229 99.1355 38.8214ZM99.8801 34.5039C99.6403 34.5031 99.4083 34.5885 99.2263 34.7445C99.0504 34.8923 98.9303 35.0957 98.8858 35.3211C98.8771 35.3732 98.8515 35.421 98.8129 35.4571C98.7744 35.4932 98.725 35.5156 98.6724 35.5209C98.5055 35.544 98.3483 35.6132 98.2184 35.7206C98.0441 35.8701 97.9361 36.0826 97.9182 36.3115C97.9003 36.5405 97.974 36.7672 98.1231 36.9419C98.1528 36.9799 98.1863 37.0149 98.223 37.0463C98.2581 37.0756 98.2846 37.1139 98.2998 37.157C98.315 37.2002 98.3182 37.2466 98.3092 37.2915C98.279 37.4211 98.2797 37.5561 98.3112 37.6854C98.3428 37.8147 98.4043 37.9348 98.4908 38.036C98.6387 38.2094 98.8492 38.3173 99.0763 38.336C99.3034 38.3547 99.5287 38.2828 99.703 38.1359C99.7814 38.0675 99.8474 37.9861 99.8982 37.8953C99.9264 37.8415 99.9739 37.8004 100.031 37.7802C100.088 37.76 100.151 37.7622 100.207 37.7863C100.353 37.8428 100.512 37.8591 100.667 37.8335C100.822 37.808 100.967 37.7415 101.088 37.641C101.221 37.528 101.317 37.3774 101.363 37.2089C101.409 37.0404 101.404 36.8619 101.346 36.6967C101.331 36.6509 101.329 36.6017 101.342 36.555C101.354 36.5082 101.379 36.466 101.415 36.4334C101.538 36.3151 101.624 36.1627 101.662 35.9956C101.699 35.8285 101.686 35.6541 101.624 35.4943C101.563 35.3346 101.455 35.1966 101.315 35.098C101.175 34.9993 101.009 34.9442 100.838 34.9397C100.767 34.9359 100.701 34.905 100.652 34.8535C100.556 34.7427 100.438 34.654 100.304 34.5937C100.171 34.5333 100.026 34.5027 99.8801 34.5039Z" fill="#019B98"/>
</svg>
